<svg width="320" height="81" viewBox="0 0 320 81" fill="none" xmlns="http://www.w3.org/2000/svg">
<g filter="url(#filter0_b_2282_8953)">
<g style="mix-blend-mode:screen" filter="url(#filter1_b_2282_8953)">
<rect y="40.5" width="320" height="40" rx="8" fill="white" fill-opacity="0.02"/>
<rect x="0.5" y="41" width="319" height="39" rx="7.5" stroke="#1F2937"/>
<g style="mix-blend-mode:screen">
<g style="mix-blend-mode:screen">
<path d="M117.864 58.5C117.739 58.1174 117.574 57.7746 117.369 57.4716C117.169 57.1648 116.928 56.9034 116.648 56.6875C116.371 56.4716 116.057 56.3068 115.705 56.1932C115.352 56.0795 114.966 56.0227 114.545 56.0227C113.856 56.0227 113.229 56.2008 112.665 56.5568C112.1 56.9129 111.652 57.4375 111.318 58.1307C110.985 58.8239 110.818 59.6742 110.818 60.6818C110.818 61.6894 110.987 62.5398 111.324 63.233C111.661 63.9261 112.117 64.4508 112.693 64.8068C113.269 65.1629 113.917 65.3409 114.636 65.3409C115.303 65.3409 115.89 65.1989 116.398 64.9148C116.909 64.6269 117.307 64.2216 117.591 63.6989C117.879 63.1723 118.023 62.553 118.023 61.8409L118.455 61.9318H114.955V60.6818H119.386V61.9318C119.386 62.8902 119.182 63.7235 118.773 64.4318C118.367 65.1402 117.807 65.6894 117.091 66.0795C116.379 66.4659 115.561 66.6591 114.636 66.6591C113.606 66.6591 112.701 66.4167 111.92 65.9318C111.144 65.447 110.538 64.7576 110.102 63.8636C109.67 62.9697 109.455 61.9091 109.455 60.6818C109.455 59.7614 109.578 58.9337 109.824 58.1989C110.074 57.4602 110.426 56.8314 110.881 56.3125C111.335 55.7936 111.873 55.3958 112.494 55.1193C113.116 54.8428 113.799 54.7045 114.545 54.7045C115.159 54.7045 115.731 54.7973 116.261 54.983C116.795 55.1648 117.271 55.4242 117.688 55.7614C118.108 56.0947 118.458 56.4943 118.739 56.9602C119.019 57.4223 119.212 57.9356 119.318 58.5H117.864ZM126.277 66.6818C125.436 66.6818 124.711 66.4962 124.101 66.125C123.495 65.75 123.027 65.2273 122.697 64.5568C122.372 63.8826 122.209 63.0985 122.209 62.2045C122.209 61.3106 122.372 60.5227 122.697 59.8409C123.027 59.1553 123.485 58.6212 124.072 58.2386C124.663 57.8523 125.353 57.6591 126.141 57.6591C126.595 57.6591 127.044 57.7348 127.487 57.8864C127.93 58.0379 128.334 58.2841 128.697 58.625C129.061 58.9621 129.351 59.4091 129.567 59.9659C129.783 60.5227 129.891 61.2083 129.891 62.0227V62.5909H123.163V61.4318H128.527C128.527 60.9394 128.429 60.5 128.232 60.1136C128.038 59.7273 127.762 59.4223 127.402 59.1989C127.046 58.9754 126.625 58.8636 126.141 58.8636C125.607 58.8636 125.144 58.9962 124.754 59.2614C124.368 59.5227 124.071 59.8636 123.862 60.2841C123.654 60.7045 123.55 61.1553 123.55 61.6364V62.4091C123.55 63.0682 123.663 63.6269 123.891 64.0852C124.122 64.5398 124.442 64.8864 124.851 65.125C125.26 65.3598 125.735 65.4773 126.277 65.4773C126.629 65.4773 126.947 65.428 127.232 65.3295C127.519 65.2273 127.768 65.0758 127.976 64.875C128.184 64.6705 128.345 64.4167 128.459 64.1136L129.754 64.4773C129.618 64.9167 129.389 65.303 129.067 65.6364C128.745 65.9659 128.347 66.2235 127.874 66.4091C127.4 66.5909 126.868 66.6818 126.277 66.6818ZM136.726 57.7727V58.9091H132.203V57.7727H136.726ZM133.521 55.6818H134.862V64C134.862 64.3788 134.917 64.6629 135.027 64.8523C135.141 65.0379 135.285 65.1629 135.459 65.2273C135.637 65.2879 135.824 65.3182 136.021 65.3182C136.169 65.3182 136.29 65.3106 136.385 65.2955C136.48 65.2765 136.555 65.2614 136.612 65.25L136.885 66.4545C136.794 66.4886 136.667 66.5227 136.504 66.5568C136.341 66.5947 136.135 66.6136 135.885 66.6136C135.506 66.6136 135.135 66.5322 134.771 66.3693C134.411 66.2064 134.112 65.9583 133.874 65.625C133.639 65.2917 133.521 64.8712 133.521 64.3636V55.6818ZM150.743 62.9318V57.7727H152.084V66.5H150.743V65.0227H150.652C150.447 65.4659 150.129 65.8428 149.697 66.1534C149.266 66.4602 148.72 66.6136 148.061 66.6136C147.516 66.6136 147.031 66.4943 146.607 66.2557C146.182 66.0133 145.849 65.6496 145.607 65.1648C145.364 64.6761 145.243 64.0606 145.243 63.3182V57.7727H146.584V63.2273C146.584 63.8636 146.762 64.3712 147.118 64.75C147.478 65.1288 147.936 65.3182 148.493 65.3182C148.826 65.3182 149.165 65.233 149.51 65.0625C149.858 64.892 150.15 64.6307 150.385 64.2784C150.624 63.9261 150.743 63.4773 150.743 62.9318ZM155.54 69.7727V57.7727H156.835V59.1591H156.994C157.093 59.0076 157.229 58.8144 157.403 58.5795C157.581 58.3409 157.835 58.1288 158.165 57.9432C158.498 57.7538 158.949 57.6591 159.517 57.6591C160.252 57.6591 160.9 57.8428 161.46 58.2102C162.021 58.5777 162.458 59.0985 162.773 59.7727C163.087 60.447 163.244 61.2424 163.244 62.1591C163.244 63.0833 163.087 63.8845 162.773 64.5625C162.458 65.2367 162.023 65.7595 161.466 66.1307C160.909 66.4981 160.267 66.6818 159.54 66.6818C158.979 66.6818 158.53 66.589 158.193 66.4034C157.856 66.214 157.597 66 157.415 65.7614C157.233 65.5189 157.093 65.3182 156.994 65.1591H156.881V69.7727H155.54ZM156.858 62.1364C156.858 62.7955 156.955 63.3769 157.148 63.8807C157.341 64.3807 157.623 64.7727 157.994 65.0568C158.366 65.3371 158.82 65.4773 159.358 65.4773C159.919 65.4773 160.386 65.3295 160.761 65.0341C161.14 64.7348 161.424 64.3333 161.614 63.8295C161.807 63.322 161.903 62.7576 161.903 62.1364C161.903 61.5227 161.809 60.9697 161.619 60.4773C161.434 59.9811 161.152 59.589 160.773 59.3011C160.398 59.0095 159.926 58.8636 159.358 58.8636C158.813 58.8636 158.354 59.0019 157.983 59.2784C157.612 59.5511 157.331 59.9337 157.142 60.4261C156.953 60.9148 156.858 61.4848 156.858 62.1364ZM169.585 66.6818C168.858 66.6818 168.216 66.4981 167.659 66.1307C167.102 65.7595 166.667 65.2367 166.352 64.5625C166.038 63.8845 165.881 63.0833 165.881 62.1591C165.881 61.2424 166.038 60.447 166.352 59.7727C166.667 59.0985 167.104 58.5777 167.665 58.2102C168.225 57.8428 168.873 57.6591 169.608 57.6591C170.176 57.6591 170.625 57.7538 170.955 57.9432C171.288 58.1288 171.542 58.3409 171.716 58.5795C171.894 58.8144 172.032 59.0076 172.131 59.1591H172.244V54.8636H173.585V66.5H172.29V65.1591H172.131C172.032 65.3182 171.892 65.5189 171.71 65.7614C171.528 66 171.269 66.214 170.932 66.4034C170.595 66.589 170.146 66.6818 169.585 66.6818ZM169.767 65.4773C170.305 65.4773 170.759 65.3371 171.131 65.0568C171.502 64.7727 171.784 64.3807 171.977 63.8807C172.17 63.3769 172.267 62.7955 172.267 62.1364C172.267 61.4848 172.172 60.9148 171.983 60.4261C171.794 59.9337 171.513 59.5511 171.142 59.2784C170.771 59.0019 170.313 58.8636 169.767 58.8636C169.199 58.8636 168.725 59.0095 168.347 59.3011C167.972 59.589 167.689 59.9811 167.5 60.4773C167.314 60.9697 167.222 61.5227 167.222 62.1364C167.222 62.7576 167.316 63.322 167.506 63.8295C167.699 64.3333 167.983 64.7348 168.358 65.0341C168.737 65.3295 169.206 65.4773 169.767 65.4773ZM179.795 66.7045C179.242 66.7045 178.741 66.6004 178.29 66.392C177.839 66.1799 177.481 65.875 177.216 65.4773C176.951 65.0758 176.818 64.5909 176.818 64.0227C176.818 63.5227 176.917 63.1174 177.114 62.8068C177.311 62.4924 177.574 62.2462 177.903 62.0682C178.233 61.8902 178.597 61.7576 178.994 61.6705C179.396 61.5795 179.799 61.5076 180.205 61.4545C180.735 61.3864 181.165 61.3352 181.494 61.3011C181.828 61.2633 182.07 61.2008 182.222 61.1136C182.377 61.0265 182.455 60.875 182.455 60.6591V60.6136C182.455 60.053 182.301 59.6174 181.994 59.3068C181.691 58.9962 181.231 58.8409 180.614 58.8409C179.973 58.8409 179.472 58.9811 179.108 59.2614C178.744 59.5417 178.489 59.8409 178.341 60.1591L177.068 59.7045C177.295 59.1742 177.598 58.7614 177.977 58.4659C178.36 58.1667 178.777 57.9583 179.227 57.8409C179.682 57.7197 180.129 57.6591 180.568 57.6591C180.848 57.6591 181.17 57.6932 181.534 57.7614C181.902 57.8258 182.256 57.9602 182.597 58.1648C182.941 58.3693 183.227 58.678 183.455 59.0909C183.682 59.5038 183.795 60.0568 183.795 60.75V66.5H182.455V65.3182H182.386C182.295 65.5076 182.144 65.7102 181.932 65.9261C181.72 66.142 181.438 66.3258 181.085 66.4773C180.733 66.6288 180.303 66.7045 179.795 66.7045ZM180 65.5C180.53 65.5 180.977 65.3958 181.341 65.1875C181.708 64.9792 181.985 64.7102 182.17 64.3807C182.36 64.0511 182.455 63.7045 182.455 63.3409V62.1136C182.398 62.1818 182.273 62.2443 182.08 62.3011C181.89 62.3542 181.67 62.4015 181.42 62.4432C181.174 62.4811 180.934 62.5152 180.699 62.5455C180.468 62.572 180.28 62.5947 180.136 62.6136C179.788 62.6591 179.462 62.733 179.159 62.8352C178.86 62.9337 178.617 63.0833 178.432 63.2841C178.25 63.4811 178.159 63.75 178.159 64.0909C178.159 64.5568 178.331 64.9091 178.676 65.1477C179.025 65.3826 179.466 65.5 180 65.5ZM191.038 57.7727V58.9091H186.516V57.7727H191.038ZM187.834 55.6818H189.175V64C189.175 64.3788 189.23 64.6629 189.339 64.8523C189.453 65.0379 189.597 65.1629 189.771 65.2273C189.949 65.2879 190.137 65.3182 190.334 65.3182C190.482 65.3182 190.603 65.3106 190.697 65.2955C190.792 65.2765 190.868 65.2614 190.925 65.25L191.197 66.4545C191.107 66.4886 190.98 66.5227 190.817 66.5568C190.654 66.5947 190.447 66.6136 190.197 66.6136C189.819 66.6136 189.447 66.5322 189.084 66.3693C188.724 66.2064 188.425 65.9583 188.186 65.625C187.951 65.2917 187.834 64.8712 187.834 64.3636V55.6818ZM197.621 66.6818C196.78 66.6818 196.054 66.4962 195.445 66.125C194.839 65.75 194.371 65.2273 194.041 64.5568C193.715 63.8826 193.553 63.0985 193.553 62.2045C193.553 61.3106 193.715 60.5227 194.041 59.8409C194.371 59.1553 194.829 58.6212 195.416 58.2386C196.007 57.8523 196.696 57.6591 197.484 57.6591C197.939 57.6591 198.388 57.7348 198.831 57.8864C199.274 58.0379 199.678 58.2841 200.041 58.625C200.405 58.9621 200.695 59.4091 200.911 59.9659C201.126 60.5227 201.234 61.2083 201.234 62.0227V62.5909H194.507V61.4318H199.871C199.871 60.9394 199.772 60.5 199.575 60.1136C199.382 59.7273 199.106 59.4223 198.746 59.1989C198.39 58.9754 197.969 58.8636 197.484 58.8636C196.95 58.8636 196.488 58.9962 196.098 59.2614C195.712 59.5227 195.414 59.8636 195.206 60.2841C194.998 60.7045 194.893 61.1553 194.893 61.6364V62.4091C194.893 63.0682 195.007 63.6269 195.234 64.0852C195.465 64.5398 195.786 64.8864 196.195 65.125C196.604 65.3598 197.079 65.4773 197.621 65.4773C197.973 65.4773 198.291 65.428 198.575 65.3295C198.863 65.2273 199.111 65.0758 199.32 64.875C199.528 64.6705 199.689 64.4167 199.803 64.1136L201.098 64.4773C200.962 64.9167 200.732 65.303 200.411 65.6364C200.089 65.9659 199.691 66.2235 199.217 66.4091C198.744 66.5909 198.212 66.6818 197.621 66.6818ZM210.456 59.7273L209.251 60.0682C209.176 59.8674 209.064 59.6723 208.916 59.483C208.772 59.2898 208.575 59.1307 208.325 59.0057C208.075 58.8807 207.755 58.8182 207.365 58.8182C206.831 58.8182 206.386 58.9413 206.03 59.1875C205.678 59.4299 205.501 59.7386 205.501 60.1136C205.501 60.447 205.623 60.7102 205.865 60.9034C206.107 61.0966 206.486 61.2576 207.001 61.3864L208.297 61.7045C209.077 61.8939 209.659 62.1837 210.041 62.5739C210.424 62.9602 210.615 63.4583 210.615 64.0682C210.615 64.5682 210.471 65.0152 210.183 65.4091C209.899 65.803 209.501 66.1136 208.99 66.3409C208.479 66.5682 207.884 66.6818 207.206 66.6818C206.316 66.6818 205.579 66.4886 204.996 66.1023C204.412 65.7159 204.043 65.1515 203.888 64.4091L205.161 64.0909C205.282 64.5606 205.511 64.9129 205.848 65.1477C206.189 65.3826 206.634 65.5 207.183 65.5C207.808 65.5 208.304 65.3674 208.672 65.1023C209.043 64.8333 209.229 64.5114 209.229 64.1364C209.229 63.8333 209.123 63.5795 208.911 63.375C208.698 63.1667 208.373 63.0114 207.933 62.9091L206.479 62.5682C205.679 62.3788 205.092 62.0852 204.717 61.6875C204.346 61.286 204.161 60.7841 204.161 60.1818C204.161 59.6894 204.299 59.2538 204.575 58.875C204.856 58.4962 205.236 58.1989 205.717 57.983C206.202 57.767 206.751 57.6591 207.365 57.6591C208.229 57.6591 208.907 57.8485 209.399 58.2273C209.895 58.6061 210.248 59.1061 210.456 59.7273Z" fill="#C4CDDB"/>
</g>
</g>
</g>
</g>
<defs>
<filter id="filter0_b_2282_8953" x="-4" y="36.5" width="328" height="48" filterUnits="userSpaceOnUse" color-interpolation-filters="sRGB">
<feFlood flood-opacity="0" result="BackgroundImageFix"/>
<feGaussianBlur in="BackgroundImageFix" stdDeviation="2"/>
<feComposite in2="SourceAlpha" operator="in" result="effect1_backgroundBlur_2282_8953"/>
<feBlend mode="normal" in="SourceGraphic" in2="effect1_backgroundBlur_2282_8953" result="shape"/>
</filter>
<filter id="filter1_b_2282_8953" x="-12" y="28.5" width="344" height="64" filterUnits="userSpaceOnUse" color-interpolation-filters="sRGB">
<feFlood flood-opacity="0" result="BackgroundImageFix"/>
<feGaussianBlur in="BackgroundImageFix" stdDeviation="6"/>
<feComposite in2="SourceAlpha" operator="in" result="effect1_backgroundBlur_2282_8953"/>
<feBlend mode="normal" in="SourceGraphic" in2="effect1_backgroundBlur_2282_8953" result="shape"/>
</filter>
</defs>
</svg>
