<svg width="1440" height="80" viewBox="0 0 1440 80" fill="none" xmlns="http://www.w3.org/2000/svg">
<g filter="url(#filter0_b_2282_8976)">
<mask id="path-1-inside-1_2282_8976" fill="white">
<path d="M0 0H1440V80H0V0Z"/>
</mask>
<path d="M0 0H1440V80H0V0Z" fill="white" fill-opacity="0.02"/>
<path d="M1440 79H0V81H1440V79Z" fill="#111827" mask="url(#path-1-inside-1_2282_8976)"/>
<g clip-path="url(#clip0_2282_8976)">
<path d="M519.542 38H518.474C518.394 37.6023 518.25 37.2348 518.042 36.8977C517.837 36.5568 517.58 36.2595 517.269 36.0057C516.959 35.7519 516.606 35.5549 516.212 35.4148C515.818 35.2746 515.392 35.2045 514.934 35.2045C514.199 35.2045 513.529 35.3958 512.923 35.7784C512.32 36.161 511.837 36.7235 511.474 37.4659C511.114 38.2045 510.934 39.1098 510.934 40.1818C510.934 41.2614 511.114 42.1705 511.474 42.9091C511.837 43.6477 512.32 44.2083 512.923 44.5909C513.529 44.9697 514.199 45.1591 514.934 45.1591C515.392 45.1591 515.818 45.089 516.212 44.9489C516.606 44.8087 516.959 44.6136 517.269 44.3636C517.58 44.1098 517.837 43.8125 518.042 43.4716C518.25 43.1307 518.394 42.7614 518.474 42.3636H519.542C519.447 42.8977 519.269 43.3958 519.008 43.858C518.75 44.3163 518.421 44.7178 518.019 45.0625C517.621 45.4072 517.163 45.6761 516.644 45.8693C516.125 46.0625 515.555 46.1591 514.934 46.1591C513.957 46.1591 513.089 45.9148 512.332 45.4261C511.574 44.9337 510.979 44.2405 510.548 43.3466C510.12 42.4527 509.906 41.3977 509.906 40.1818C509.906 38.9659 510.12 37.911 510.548 37.017C510.979 36.1231 511.574 35.4318 512.332 34.9432C513.089 34.4508 513.957 34.2045 514.934 34.2045C515.555 34.2045 516.125 34.3011 516.644 34.4943C517.163 34.6837 517.621 34.9527 518.019 35.3011C518.421 35.6458 518.75 36.0473 519.008 36.5057C519.269 36.964 519.447 37.4621 519.542 38ZM526.219 46.1818C525.466 46.1818 524.799 45.9905 524.219 45.608C523.644 45.2254 523.193 44.697 522.867 44.0227C522.541 43.3447 522.379 42.5625 522.379 41.6761C522.379 40.7822 522.541 39.9962 522.867 39.3182C523.193 38.6364 523.644 38.1061 524.219 37.7273C524.799 37.3447 525.466 37.1534 526.219 37.1534C526.973 37.1534 527.638 37.3447 528.214 37.7273C528.79 38.1098 529.24 38.6402 529.566 39.3182C529.896 39.9962 530.06 40.7822 530.06 41.6761C530.06 42.5625 529.897 43.3447 529.572 44.0227C529.246 44.697 528.793 45.2254 528.214 45.608C527.638 45.9905 526.973 46.1818 526.219 46.1818ZM526.219 45.2557C526.826 45.2557 527.339 45.0928 527.759 44.767C528.18 44.4413 528.498 44.0076 528.714 43.4659C528.933 42.9242 529.043 42.3277 529.043 41.6761C529.043 41.0246 528.933 40.4261 528.714 39.8807C528.498 39.3352 528.18 38.8977 527.759 38.5682C527.339 38.2386 526.826 38.0739 526.219 38.0739C525.617 38.0739 525.104 38.2386 524.68 38.5682C524.259 38.8977 523.939 39.3352 523.719 39.8807C523.504 40.4261 523.396 41.0246 523.396 41.6761C523.396 42.3277 523.504 42.9242 523.719 43.4659C523.939 44.0076 524.259 44.4413 524.68 44.767C525.1 45.0928 525.613 45.2557 526.219 45.2557ZM533.281 49.2727V37.2727H534.263V38.9375H534.383C534.504 38.6761 534.671 38.4091 534.883 38.1364C535.095 37.8598 535.375 37.6269 535.724 37.4375C536.076 37.2481 536.519 37.1534 537.053 37.1534C537.773 37.1534 538.402 37.3428 538.94 37.7216C539.481 38.0966 539.902 38.6231 540.201 39.3011C540.504 39.9754 540.656 40.7614 540.656 41.6591C540.656 42.5606 540.504 43.3504 540.201 44.0284C539.902 44.7064 539.481 45.2348 538.94 45.6136C538.402 45.9924 537.777 46.1818 537.065 46.1818C536.538 46.1818 536.097 46.0871 535.741 45.8977C535.388 45.7083 535.103 45.4754 534.883 45.1989C534.667 44.9186 534.5 44.6458 534.383 44.3807H534.292V49.2727H533.281ZM534.281 41.642C534.281 42.3466 534.385 42.9716 534.593 43.517C534.805 44.0587 535.108 44.4848 535.502 44.7955C535.9 45.1023 536.381 45.2557 536.945 45.2557C537.525 45.2557 538.013 45.0966 538.411 44.7784C538.813 44.4564 539.118 44.0227 539.326 43.4773C539.538 42.9318 539.644 42.3201 539.644 41.642C539.644 40.9716 539.54 40.3674 539.332 39.8295C539.127 39.2917 538.824 38.8655 538.423 38.5511C538.021 38.233 537.529 38.0739 536.945 38.0739C536.377 38.0739 535.894 38.2273 535.496 38.5341C535.099 38.8371 534.796 39.2576 534.587 39.7955C534.383 40.3295 534.281 40.9451 534.281 41.642ZM544.266 49.2727C544.066 49.2727 543.878 49.2538 543.704 49.2159C543.53 49.178 543.391 49.1364 543.289 49.0909L543.562 48.1989C543.906 48.3049 544.213 48.3428 544.482 48.3125C544.751 48.286 544.99 48.1648 545.198 47.9489C545.406 47.7367 545.592 47.411 545.755 46.9716L546.073 46.0852L542.863 37.2727H543.96L546.55 44.6648H546.63L549.221 37.2727H550.317L546.624 47.3807C546.469 47.8011 546.278 48.1515 546.05 48.4318C545.823 48.7159 545.56 48.9261 545.261 49.0625C544.965 49.2027 544.634 49.2727 544.266 49.2727ZM553.296 46V37.2727H554.279V38.6136H554.353C554.527 38.1742 554.83 37.8201 555.262 37.5511C555.698 37.2784 556.19 37.142 556.739 37.142C556.823 37.142 556.915 37.1439 557.018 37.1477C557.12 37.1515 557.205 37.1553 557.273 37.1591V38.1875C557.228 38.1799 557.148 38.1686 557.035 38.1534C556.921 38.1383 556.798 38.1307 556.665 38.1307C556.211 38.1307 555.806 38.2273 555.45 38.4205C555.097 38.6098 554.819 38.8731 554.614 39.2102C554.41 39.5473 554.308 39.9318 554.308 40.3636V46H553.296ZM560.011 46V37.2727H561.028V46H560.011ZM560.528 35.7727C560.319 35.7727 560.141 35.7027 559.994 35.5625C559.846 35.4186 559.772 35.2462 559.772 35.0455C559.772 34.8447 559.846 34.6742 559.994 34.5341C560.141 34.3902 560.319 34.3182 560.528 34.3182C560.736 34.3182 560.914 34.3902 561.062 34.5341C561.21 34.6742 561.283 34.8447 561.283 35.0455C561.283 35.2462 561.21 35.4186 561.062 35.5625C560.914 35.7027 560.736 35.7727 560.528 35.7727ZM568.032 49.4545C567.437 49.4545 566.916 49.3769 566.469 49.2216C566.022 49.0701 565.646 48.8617 565.339 48.5966C565.032 48.3314 564.793 48.0341 564.623 47.7045L565.452 47.1591C565.577 47.3788 565.744 47.5947 565.952 47.8068C566.165 48.0189 566.439 48.1951 566.776 48.3352C567.117 48.4754 567.536 48.5455 568.032 48.5455C568.805 48.5455 569.428 48.3523 569.901 47.9659C570.379 47.5795 570.617 46.9792 570.617 46.1648V44.1989H570.526C570.409 44.464 570.24 44.7292 570.021 44.9943C569.801 45.2557 569.513 45.4735 569.157 45.6477C568.805 45.822 568.367 45.9091 567.844 45.9091C567.147 45.9091 566.528 45.7367 565.987 45.392C565.449 45.0473 565.024 44.5549 564.714 43.9148C564.407 43.2708 564.254 42.5038 564.254 41.6136C564.254 40.7311 564.403 39.9545 564.702 39.2841C565.005 38.6136 565.428 38.0909 565.969 37.7159C566.511 37.3409 567.142 37.1534 567.862 37.1534C568.396 37.1534 568.839 37.2481 569.191 37.4375C569.543 37.6231 569.826 37.8542 570.038 38.1307C570.254 38.4072 570.422 38.6761 570.543 38.9375H570.646V37.2727H571.634V46.2273C571.634 46.9659 571.477 47.5739 571.163 48.0511C570.848 48.5284 570.42 48.8807 569.879 49.108C569.337 49.339 568.721 49.4545 568.032 49.4545ZM567.964 44.983C568.524 44.983 569.004 44.8485 569.401 44.5795C569.799 44.3068 570.104 43.9167 570.316 43.4091C570.528 42.9015 570.634 42.2973 570.634 41.5966C570.634 40.9148 570.53 40.3106 570.322 39.7841C570.113 39.2538 569.81 38.8371 569.413 38.5341C569.019 38.2273 568.536 38.0739 567.964 38.0739C567.38 38.0739 566.888 38.2311 566.487 38.5455C566.085 38.8598 565.782 39.2841 565.577 39.8182C565.373 40.3485 565.271 40.9413 565.271 41.5966C565.271 42.2633 565.375 42.8523 565.583 43.3636C565.791 43.8712 566.096 44.2689 566.498 44.5568C566.899 44.8409 567.388 44.983 567.964 44.983ZM576.323 40.5455V46H575.312V34.3636H576.323V38.642H576.414C576.619 38.1913 576.935 37.8314 577.363 37.5625C577.795 37.2936 578.34 37.1591 578.999 37.1591C579.59 37.1591 580.109 37.2803 580.556 37.5227C581.003 37.7652 581.352 38.1231 581.602 38.5966C581.852 39.0701 581.977 39.6534 581.977 40.3466V46H580.96V40.4091C580.96 39.6894 580.759 39.1231 580.357 38.7102C579.96 38.2936 579.422 38.0852 578.744 38.0852C578.278 38.0852 577.863 38.1837 577.499 38.3807C577.136 38.5777 576.848 38.8617 576.636 39.233C576.427 39.6004 576.323 40.0379 576.323 40.5455ZM589.077 37.2727V38.1534H584.913V37.2727H589.077ZM586.214 35.1818H587.231V43.7216C587.231 44.0852 587.293 44.3712 587.418 44.5795C587.543 44.7841 587.706 44.9299 587.907 45.017C588.108 45.1004 588.322 45.142 588.549 45.142C588.682 45.142 588.795 45.1345 588.89 45.1193C588.985 45.1004 589.068 45.0814 589.14 45.0625L589.356 45.9773C589.257 46.0152 589.136 46.0492 588.992 46.0795C588.848 46.1136 588.67 46.1307 588.458 46.1307C588.087 46.1307 587.729 46.0492 587.384 45.8864C587.043 45.7235 586.763 45.4811 586.543 45.1591C586.324 44.8371 586.214 44.4375 586.214 43.9602V35.1818ZM600.573 40.1818C600.573 39.5606 600.725 38.9943 601.028 38.483C601.331 37.9716 601.738 37.5644 602.249 37.2614C602.761 36.9583 603.327 36.8068 603.948 36.8068C604.456 36.8068 604.924 36.911 605.352 37.1193C605.78 37.3277 606.138 37.6136 606.425 37.9773C606.717 38.3371 606.912 38.7481 607.011 39.2102H605.954C605.84 38.7973 605.598 38.4602 605.227 38.1989C604.855 37.9375 604.429 37.8068 603.948 37.8068C603.513 37.8068 603.115 37.9148 602.755 38.1307C602.395 38.3428 602.107 38.6288 601.891 38.9886C601.679 39.3447 601.573 39.7424 601.573 40.1818C601.573 40.6174 601.679 41.0152 601.891 41.375C602.107 41.7348 602.395 42.0227 602.755 42.2386C603.115 42.4508 603.513 42.5568 603.948 42.5568C604.429 42.5568 604.842 42.4261 605.187 42.1648C605.531 41.9034 605.763 41.5663 605.88 41.1534H606.931C606.836 41.6155 606.651 42.0284 606.374 42.392C606.098 42.7519 605.751 43.036 605.335 43.2443C604.918 43.4527 604.456 43.5568 603.948 43.5568C603.327 43.5568 602.761 43.4053 602.249 43.1023C601.738 42.7992 601.331 42.392 601.028 41.8807C600.725 41.3693 600.573 40.803 600.573 40.1818ZM603.857 46.1818C603.031 46.1818 602.255 46.0265 601.528 45.7159C600.804 45.4053 600.166 44.9754 599.613 44.4261C599.064 43.8731 598.632 43.2348 598.317 42.5114C598.007 41.7879 597.853 41.0114 597.857 40.1818C597.861 39.3523 598.018 38.5758 598.329 37.8523C598.643 37.1288 599.075 36.4924 599.624 35.9432C600.174 35.3902 600.81 34.9583 601.533 34.6477C602.257 34.3371 603.031 34.1818 603.857 34.1818C604.687 34.1818 605.463 34.3371 606.187 34.6477C606.914 34.9583 607.55 35.3902 608.096 35.9432C608.645 36.4924 609.075 37.1288 609.386 37.8523C609.696 38.5758 609.853 39.3523 609.857 40.1818C609.861 41.0114 609.708 41.7879 609.397 42.5114C609.086 43.2348 608.656 43.8731 608.107 44.4261C607.558 44.9754 606.92 45.4053 606.192 45.7159C605.465 46.0265 604.687 46.1818 603.857 46.1818ZM603.857 45.1818C604.55 45.1818 605.2 45.053 605.806 44.7955C606.412 44.5341 606.942 44.1761 607.397 43.7216C607.855 43.2633 608.213 42.7311 608.471 42.125C608.732 41.5189 608.861 40.8731 608.857 40.1875C608.853 39.4943 608.721 38.8447 608.46 38.2386C608.202 37.6326 607.844 37.1023 607.386 36.6477C606.931 36.1894 606.403 35.8314 605.8 35.5739C605.198 35.3125 604.55 35.1818 603.857 35.1818C603.168 35.1818 602.522 35.3125 601.92 35.5739C601.317 35.8314 600.787 36.1894 600.329 36.6477C599.874 37.1061 599.516 37.6383 599.255 38.2443C598.994 38.8466 598.861 39.4943 598.857 40.1875C598.853 40.8731 598.98 41.5189 599.238 42.125C599.499 42.7273 599.859 43.2576 600.317 43.7159C600.776 44.1705 601.308 44.5284 601.914 44.7898C602.52 45.0511 603.168 45.1818 603.857 45.1818ZM618.975 46V45.2216L622.776 40.9489C623.272 40.3883 623.672 39.9091 623.975 39.5114C624.278 39.1136 624.498 38.7462 624.634 38.4091C624.774 38.072 624.844 37.7216 624.844 37.358C624.844 36.9148 624.74 36.5284 624.532 36.1989C624.327 35.8655 624.045 35.6061 623.685 35.4205C623.326 35.2348 622.92 35.142 622.469 35.142C621.992 35.142 621.574 35.2443 621.214 35.4489C620.858 35.6534 620.581 35.9337 620.384 36.2898C620.187 36.6458 620.089 37.0549 620.089 37.517H619.072C619.072 36.8731 619.219 36.303 619.515 35.8068C619.814 35.3068 620.221 34.9148 620.737 34.6307C621.255 34.3466 621.843 34.2045 622.498 34.2045C623.146 34.2045 623.721 34.3447 624.225 34.625C624.729 34.9015 625.125 35.2784 625.413 35.7557C625.701 36.233 625.844 36.767 625.844 37.358C625.844 37.786 625.769 38.2008 625.617 38.6023C625.469 39.0038 625.214 39.4508 624.85 39.9432C624.487 40.4356 623.983 41.0379 623.339 41.75L620.452 44.9716V45.0455H626.208V46H618.975ZM633.354 46.1591C632.536 46.1591 631.837 45.9242 631.258 45.4545C630.682 44.9811 630.239 44.2973 629.928 43.4034C629.621 42.5095 629.468 41.4356 629.468 40.1818C629.468 38.9318 629.621 37.8617 629.928 36.9716C630.239 36.0777 630.684 35.3939 631.263 34.9205C631.847 34.4432 632.544 34.2045 633.354 34.2045C634.165 34.2045 634.86 34.4432 635.44 34.9205C636.023 35.3939 636.468 36.0777 636.775 36.9716C637.085 37.8617 637.241 38.9318 637.241 40.1818C637.241 41.4356 637.085 42.5095 636.775 43.4034C636.468 44.2973 636.025 44.9811 635.445 45.4545C634.87 45.9242 634.173 46.1591 633.354 46.1591ZM633.354 45.2045C634.252 45.2045 634.953 44.767 635.457 43.892C635.96 43.0133 636.212 41.7765 636.212 40.1818C636.212 39.1212 636.097 38.2159 635.866 37.4659C635.638 36.7121 635.311 36.1364 634.883 35.7386C634.459 35.3409 633.949 35.142 633.354 35.142C632.464 35.142 631.765 35.5852 631.258 36.4716C630.75 37.3542 630.496 38.5909 630.496 40.1818C630.496 41.2424 630.61 42.1477 630.837 42.8977C631.068 43.6477 631.396 44.2197 631.82 44.6136C632.248 45.0076 632.76 45.2045 633.354 45.2045ZM640.553 46V45.2216L644.354 40.9489C644.851 40.3883 645.25 39.9091 645.553 39.5114C645.856 39.1136 646.076 38.7462 646.212 38.4091C646.353 38.072 646.423 37.7216 646.423 37.358C646.423 36.9148 646.318 36.5284 646.11 36.1989C645.906 35.8655 645.623 35.6061 645.263 35.4205C644.904 35.2348 644.498 35.142 644.048 35.142C643.57 35.142 643.152 35.2443 642.792 35.4489C642.436 35.6534 642.159 35.9337 641.962 36.2898C641.765 36.6458 641.667 37.0549 641.667 37.517H640.65C640.65 36.8731 640.798 36.303 641.093 35.8068C641.392 35.3068 641.799 34.9148 642.315 34.6307C642.834 34.3466 643.421 34.2045 644.076 34.2045C644.724 34.2045 645.299 34.3447 645.803 34.625C646.307 34.9015 646.703 35.2784 646.991 35.7557C647.279 36.233 647.423 36.767 647.423 37.358C647.423 37.786 647.347 38.2008 647.195 38.6023C647.048 39.0038 646.792 39.4508 646.428 39.9432C646.065 40.4356 645.561 41.0379 644.917 41.75L642.031 44.9716V45.0455H647.786V46H640.553ZM654.722 46.1591C654.075 46.1591 653.495 46.0284 652.984 45.767C652.476 45.5019 652.071 45.1383 651.768 44.6761C651.469 44.214 651.309 43.6856 651.29 43.0909H652.319C652.353 43.7083 652.595 44.2159 653.046 44.6136C653.497 45.0076 654.056 45.2045 654.722 45.2045C655.241 45.2045 655.703 45.0814 656.109 44.8352C656.514 44.5852 656.83 44.2443 657.058 43.8125C657.289 43.3769 657.404 42.8864 657.404 42.3409C657.4 41.7727 657.277 41.2727 657.035 40.8409C656.792 40.4053 656.463 40.0644 656.046 39.8182C655.633 39.572 655.169 39.4489 654.654 39.4489C654.264 39.4451 653.881 39.5095 653.506 39.642C653.131 39.7746 652.819 39.9451 652.569 40.1534L651.506 40.017L652.205 34.3636H657.955V35.3182H653.097L652.631 39.2102H652.688C652.946 38.9943 653.258 38.8182 653.626 38.6818C653.997 38.5455 654.389 38.4773 654.802 38.4773C655.487 38.4773 656.103 38.642 656.648 38.9716C657.198 39.3011 657.631 39.7557 657.95 40.3352C658.272 40.911 658.433 41.5739 658.433 42.3239C658.433 43.0587 658.272 43.7159 657.95 44.2955C657.631 44.8712 657.192 45.3258 656.631 45.6591C656.075 45.9924 655.438 46.1591 654.722 46.1591ZM673.918 37.2727C673.854 36.625 673.568 36.1098 673.06 35.7273C672.553 35.3447 671.915 35.1534 671.146 35.1534C670.604 35.1534 670.127 35.2462 669.714 35.4318C669.305 35.6174 668.983 35.875 668.748 36.2045C668.517 36.5303 668.401 36.9015 668.401 37.3182C668.401 37.625 668.468 37.8939 668.6 38.125C668.733 38.3561 668.911 38.5549 669.134 38.7216C669.362 38.8845 669.612 39.0246 669.884 39.142C670.161 39.2595 670.439 39.358 670.719 39.4375L671.947 39.7898C672.318 39.892 672.689 40.0227 673.06 40.1818C673.432 40.3409 673.771 40.5417 674.077 40.7841C674.388 41.0227 674.636 41.3163 674.822 41.6648C675.011 42.0095 675.106 42.4242 675.106 42.9091C675.106 43.5303 674.945 44.089 674.623 44.5852C674.301 45.0814 673.839 45.4754 673.237 45.767C672.634 46.0549 671.913 46.1989 671.072 46.1989C670.28 46.1989 669.593 46.0682 669.009 45.8068C668.426 45.5417 667.968 45.1761 667.634 44.7102C667.301 44.2443 667.113 43.7045 667.072 43.0909H668.163C668.201 43.5492 668.352 43.9375 668.617 44.2557C668.882 44.5739 669.227 44.8163 669.651 44.983C670.076 45.1458 670.549 45.2273 671.072 45.2273C671.651 45.2273 672.166 45.1307 672.617 44.9375C673.072 44.7405 673.428 44.4678 673.685 44.1193C673.947 43.767 674.077 43.358 674.077 42.892C674.077 42.4981 673.975 42.1686 673.771 41.9034C673.566 41.6345 673.28 41.4091 672.913 41.2273C672.549 41.0455 672.127 40.8845 671.646 40.7443L670.254 40.3352C669.341 40.0625 668.632 39.6856 668.129 39.2045C667.625 38.7235 667.373 38.1098 667.373 37.3636C667.373 36.7386 667.54 36.1894 667.873 35.7159C668.21 35.2386 668.665 34.8674 669.237 34.6023C669.812 34.3333 670.458 34.1989 671.174 34.1989C671.897 34.1989 672.538 34.3314 673.094 34.5966C673.651 34.8617 674.093 35.2273 674.418 35.6932C674.748 36.1553 674.924 36.6818 674.947 37.2727H673.918ZM678.464 46V37.2727H679.481V46H678.464ZM678.981 35.7727C678.772 35.7727 678.594 35.7027 678.447 35.5625C678.299 35.4186 678.225 35.2462 678.225 35.0455C678.225 34.8447 678.299 34.6742 678.447 34.5341C678.594 34.3902 678.772 34.3182 678.981 34.3182C679.189 34.3182 679.367 34.3902 679.515 34.5341C679.663 34.6742 679.737 34.8447 679.737 35.0455C679.737 35.2462 679.663 35.4186 679.515 35.5625C679.367 35.7027 679.189 35.7727 678.981 35.7727ZM684.167 34.3636V46H683.156V34.3636H684.167ZM688.854 40.5455V46H687.843V34.3636H688.854V38.642H688.945C689.15 38.1913 689.466 37.8314 689.894 37.5625C690.326 37.2936 690.871 37.1591 691.531 37.1591C692.121 37.1591 692.64 37.2803 693.087 37.5227C693.534 37.7652 693.883 38.1231 694.133 38.5966C694.383 39.0701 694.508 39.6534 694.508 40.3466V46H693.491V40.4091C693.491 39.6894 693.29 39.1231 692.888 38.7102C692.491 38.2936 691.953 38.0852 691.275 38.0852C690.809 38.0852 690.394 38.1837 690.031 38.3807C689.667 38.5777 689.379 38.8617 689.167 39.233C688.959 39.6004 688.854 40.0379 688.854 40.5455ZM701.563 46.1818C700.809 46.1818 700.143 45.9905 699.563 45.608C698.987 45.2254 698.537 44.697 698.211 44.0227C697.885 43.3447 697.722 42.5625 697.722 41.6761C697.722 40.7822 697.885 39.9962 698.211 39.3182C698.537 38.6364 698.987 38.1061 699.563 37.7273C700.143 37.3447 700.809 37.1534 701.563 37.1534C702.317 37.1534 702.982 37.3447 703.558 37.7273C704.133 38.1098 704.584 38.6402 704.91 39.3182C705.239 39.9962 705.404 40.7822 705.404 41.6761C705.404 42.5625 705.241 43.3447 704.915 44.0227C704.59 44.697 704.137 45.2254 703.558 45.608C702.982 45.9905 702.317 46.1818 701.563 46.1818ZM701.563 45.2557C702.169 45.2557 702.683 45.0928 703.103 44.767C703.523 44.4413 703.842 44.0076 704.058 43.4659C704.277 42.9242 704.387 42.3277 704.387 41.6761C704.387 41.0246 704.277 40.4261 704.058 39.8807C703.842 39.3352 703.523 38.8977 703.103 38.5682C702.683 38.2386 702.169 38.0739 701.563 38.0739C700.961 38.0739 700.448 38.2386 700.023 38.5682C699.603 38.8977 699.283 39.3352 699.063 39.8807C698.847 40.4261 698.739 41.0246 698.739 41.6761C698.739 42.3277 698.847 42.9242 699.063 43.4659C699.283 44.0076 699.603 44.4413 700.023 44.767C700.444 45.0928 700.957 45.2557 701.563 45.2557ZM714.17 42.6648V37.2727H715.181V46H714.17V44.5511H714.09C713.886 44.9981 713.562 45.3712 713.119 45.6705C712.675 45.9659 712.134 46.1136 711.494 46.1136C710.937 46.1136 710.442 45.9924 710.011 45.75C709.579 45.5038 709.24 45.1439 708.994 44.6705C708.747 44.197 708.624 43.6155 708.624 42.9261V37.2727H709.636V42.8636C709.636 43.5455 709.836 44.0947 710.238 44.5114C710.639 44.9242 711.155 45.1307 711.783 45.1307C712.177 45.1307 712.556 45.036 712.92 44.8466C713.283 44.6572 713.583 44.3807 713.817 44.017C714.052 43.6496 714.17 43.1989 714.17 42.6648ZM722.387 46.1818C721.573 46.1818 720.868 45.9924 720.273 45.6136C719.679 45.2311 719.219 44.7027 718.893 44.0284C718.571 43.3504 718.41 42.5701 718.41 41.6875C718.41 40.8087 718.571 40.0284 718.893 39.3466C719.219 38.661 719.667 38.125 720.239 37.7386C720.815 37.3485 721.48 37.1534 722.234 37.1534C722.707 37.1534 723.164 37.2405 723.603 37.4148C724.042 37.5852 724.436 37.8485 724.785 38.2045C725.137 38.5568 725.415 39.0019 725.62 39.5398C725.825 40.0739 725.927 40.7064 725.927 41.4375V41.9375H719.109V41.0455H724.893C724.893 40.4848 724.779 39.9811 724.552 39.5341C724.328 39.0833 724.016 38.7273 723.614 38.4659C723.217 38.2045 722.756 38.0739 722.234 38.0739C721.681 38.0739 721.194 38.2216 720.773 38.517C720.353 38.8125 720.023 39.2027 719.785 39.6875C719.55 40.1723 719.431 40.7027 719.427 41.2784V41.8125C719.427 42.5057 719.546 43.1117 719.785 43.6307C720.027 44.1458 720.37 44.5455 720.813 44.8295C721.256 45.1136 721.781 45.2557 722.387 45.2557C722.8 45.2557 723.162 45.1913 723.472 45.0625C723.787 44.9337 724.05 44.7614 724.262 44.5455C724.478 44.3258 724.641 44.0852 724.751 43.8239L725.711 44.1364C725.578 44.5038 725.361 44.8428 725.058 45.1534C724.758 45.464 724.383 45.714 723.933 45.9034C723.486 46.089 722.97 46.1818 722.387 46.1818ZM732.593 37.2727V38.1534H728.428V37.2727H732.593ZM729.729 35.1818H730.746V43.7216C730.746 44.0852 730.809 44.3712 730.934 44.5795C731.059 44.7841 731.222 44.9299 731.423 45.017C731.623 45.1004 731.837 45.142 732.065 45.142C732.197 45.142 732.311 45.1345 732.406 45.1193C732.5 45.1004 732.584 45.0814 732.656 45.0625L732.871 45.9773C732.773 46.0152 732.652 46.0492 732.508 46.0795C732.364 46.1136 732.186 46.1307 731.974 46.1307C731.603 46.1307 731.245 46.0492 730.9 45.8864C730.559 45.7235 730.279 45.4811 730.059 45.1591C729.839 44.8371 729.729 44.4375 729.729 43.9602V35.1818ZM739.327 37.2727V38.1534H735.163V37.2727H739.327ZM736.464 35.1818H737.481V43.7216C737.481 44.0852 737.543 44.3712 737.668 44.5795C737.793 44.7841 737.956 44.9299 738.157 45.017C738.358 45.1004 738.572 45.142 738.799 45.142C738.932 45.142 739.045 45.1345 739.14 45.1193C739.235 45.1004 739.318 45.0814 739.39 45.0625L739.606 45.9773C739.507 46.0152 739.386 46.0492 739.242 46.0795C739.098 46.1136 738.92 46.1307 738.708 46.1307C738.337 46.1307 737.979 46.0492 737.634 45.8864C737.293 45.7235 737.013 45.4811 736.793 45.1591C736.574 44.8371 736.464 44.4375 736.464 43.9602V35.1818ZM746.059 46.1818C745.245 46.1818 744.54 45.9924 743.945 45.6136C743.351 45.2311 742.89 44.7027 742.565 44.0284C742.243 43.3504 742.082 42.5701 742.082 41.6875C742.082 40.8087 742.243 40.0284 742.565 39.3466C742.89 38.661 743.339 38.125 743.911 37.7386C744.487 37.3485 745.152 37.1534 745.906 37.1534C746.379 37.1534 746.835 37.2405 747.275 37.4148C747.714 37.5852 748.108 37.8485 748.457 38.2045C748.809 38.5568 749.087 39.0019 749.292 39.5398C749.496 40.0739 749.599 40.7064 749.599 41.4375V41.9375H742.781V41.0455H748.565C748.565 40.4848 748.451 39.9811 748.224 39.5341C748 39.0833 747.688 38.7273 747.286 38.4659C746.888 38.2045 746.428 38.0739 745.906 38.0739C745.353 38.0739 744.866 38.2216 744.445 38.517C744.025 38.8125 743.695 39.2027 743.457 39.6875C743.222 40.1723 743.103 40.7027 743.099 41.2784V41.8125C743.099 42.5057 743.218 43.1117 743.457 43.6307C743.699 44.1458 744.042 44.5455 744.485 44.8295C744.928 45.1136 745.453 45.2557 746.059 45.2557C746.472 45.2557 746.834 45.1913 747.144 45.0625C747.459 44.9337 747.722 44.7614 747.934 44.5455C748.15 44.3258 748.313 44.0852 748.423 43.8239L749.383 44.1364C749.25 44.5038 749.032 44.8428 748.729 45.1534C748.43 45.464 748.055 45.714 747.604 45.9034C747.157 46.089 746.642 46.1818 746.059 46.1818ZM759.901 30.6136V49.75H759.021V30.6136H759.901ZM769.992 46H768.879L773.112 34.3636H774.248L778.481 46H777.367L773.719 35.7443H773.64L769.992 46ZM770.793 41.5398H776.566V42.4943H770.793V41.5398ZM782.276 34.3636V46H781.265V34.3636H782.276ZM786.964 34.3636V46H785.952V34.3636H786.964ZM796.35 46V34.3636H800.106C800.932 34.3636 801.621 34.5133 802.174 34.8125C802.731 35.108 803.149 35.5189 803.43 36.0455C803.714 36.5682 803.856 37.1686 803.856 37.8466C803.856 38.5246 803.714 39.1231 803.43 39.642C803.149 40.161 802.733 40.5663 802.18 40.858C801.627 41.1496 800.941 41.2955 800.123 41.2955H796.924V40.3239H800.094C800.701 40.3239 801.204 40.2235 801.606 40.0227C802.011 39.822 802.312 39.536 802.509 39.1648C802.71 38.7936 802.81 38.3542 802.81 37.8466C802.81 37.339 802.71 36.8958 802.509 36.517C802.308 36.1345 802.005 35.839 801.6 35.6307C801.199 35.4223 800.691 35.3182 800.077 35.3182H797.413V46H796.35ZM801.481 40.75L804.344 46H803.117L800.282 40.75H801.481ZM807.245 46V37.2727H808.262V46H807.245ZM807.762 35.7727C807.554 35.7727 807.376 35.7027 807.228 35.5625C807.08 35.4186 807.006 35.2462 807.006 35.0455C807.006 34.8447 807.08 34.6742 807.228 34.5341C807.376 34.3902 807.554 34.3182 807.762 34.3182C807.97 34.3182 808.148 34.3902 808.296 34.5341C808.444 34.6742 808.518 34.8447 808.518 35.0455C808.518 35.2462 808.444 35.4186 808.296 35.5625C808.148 35.7027 807.97 35.7727 807.762 35.7727ZM815.266 49.4545C814.672 49.4545 814.151 49.3769 813.704 49.2216C813.257 49.0701 812.88 48.8617 812.573 48.5966C812.266 48.3314 812.028 48.0341 811.857 47.7045L812.687 47.1591C812.812 47.3788 812.978 47.5947 813.187 47.8068C813.399 48.0189 813.674 48.1951 814.011 48.3352C814.352 48.4754 814.77 48.5455 815.266 48.5455C816.039 48.5455 816.662 48.3523 817.136 47.9659C817.613 47.5795 817.852 46.9792 817.852 46.1648V44.1989H817.761C817.643 44.464 817.475 44.7292 817.255 44.9943C817.035 45.2557 816.747 45.4735 816.391 45.6477C816.039 45.822 815.602 45.9091 815.079 45.9091C814.382 45.9091 813.763 45.7367 813.221 45.392C812.683 45.0473 812.259 44.5549 811.948 43.9148C811.641 43.2708 811.488 42.5038 811.488 41.6136C811.488 40.7311 811.638 39.9545 811.937 39.2841C812.24 38.6136 812.662 38.0909 813.204 37.7159C813.746 37.3409 814.376 37.1534 815.096 37.1534C815.63 37.1534 816.073 37.2481 816.425 37.4375C816.778 37.6231 817.06 37.8542 817.272 38.1307C817.488 38.4072 817.656 38.6761 817.778 38.9375H817.88V37.2727H818.869V46.2273C818.869 46.9659 818.711 47.5739 818.397 48.0511C818.083 48.5284 817.655 48.8807 817.113 49.108C816.571 49.339 815.956 49.4545 815.266 49.4545ZM815.198 44.983C815.759 44.983 816.238 44.8485 816.636 44.5795C817.033 44.3068 817.338 43.9167 817.55 43.4091C817.763 42.9015 817.869 42.2973 817.869 41.5966C817.869 40.9148 817.764 40.3106 817.556 39.7841C817.348 39.2538 817.045 38.8371 816.647 38.5341C816.253 38.2273 815.77 38.0739 815.198 38.0739C814.615 38.0739 814.122 38.2311 813.721 38.5455C813.319 38.8598 813.016 39.2841 812.812 39.8182C812.607 40.3485 812.505 40.9413 812.505 41.5966C812.505 42.2633 812.609 42.8523 812.817 43.3636C813.026 43.8712 813.331 44.2689 813.732 44.5568C814.134 44.8409 814.622 44.983 815.198 44.983ZM823.558 40.5455V46H822.546V34.3636H823.558V38.642H823.648C823.853 38.1913 824.169 37.8314 824.597 37.5625C825.029 37.2936 825.575 37.1591 826.234 37.1591C826.825 37.1591 827.344 37.2803 827.79 37.5227C828.237 37.7652 828.586 38.1231 828.836 38.5966C829.086 39.0701 829.211 39.6534 829.211 40.3466V46H828.194V40.4091C828.194 39.6894 827.993 39.1231 827.592 38.7102C827.194 38.2936 826.656 38.0852 825.978 38.0852C825.512 38.0852 825.097 38.1837 824.734 38.3807C824.37 38.5777 824.082 38.8617 823.87 39.233C823.662 39.6004 823.558 40.0379 823.558 40.5455ZM836.312 37.2727V38.1534H832.147V37.2727H836.312ZM833.448 35.1818H834.465V43.7216C834.465 44.0852 834.528 44.3712 834.653 44.5795C834.778 44.7841 834.941 44.9299 835.141 45.017C835.342 45.1004 835.556 45.142 835.783 45.142C835.916 45.142 836.03 45.1345 836.124 45.1193C836.219 45.1004 836.302 45.0814 836.374 45.0625L836.59 45.9773C836.492 46.0152 836.371 46.0492 836.227 46.0795C836.083 46.1136 835.905 46.1307 835.692 46.1307C835.321 46.1307 834.963 46.0492 834.619 45.8864C834.278 45.7235 833.997 45.4811 833.778 45.1591C833.558 44.8371 833.448 44.4375 833.448 43.9602V35.1818ZM845.316 39.1875L844.39 39.4489C844.299 39.1875 844.17 38.9508 844.004 38.7386C843.837 38.5265 843.619 38.358 843.35 38.233C843.085 38.108 842.755 38.0455 842.362 38.0455C841.771 38.0455 841.286 38.1856 840.907 38.4659C840.528 38.7462 840.339 39.108 840.339 39.5511C840.339 39.9261 840.468 40.2311 840.725 40.4659C840.987 40.697 841.388 40.8807 841.93 41.017L843.248 41.3409C843.979 41.5189 844.526 41.8011 844.89 42.1875C845.257 42.5739 845.441 43.0587 845.441 43.642C845.441 44.1345 845.305 44.572 845.032 44.9545C844.759 45.3371 844.379 45.6383 843.89 45.858C843.405 46.0739 842.843 46.1818 842.202 46.1818C841.35 46.1818 840.647 45.9905 840.094 45.608C839.541 45.2216 839.187 44.6648 839.032 43.9375L840.004 43.6989C840.129 44.2178 840.373 44.6098 840.737 44.875C841.104 45.1402 841.587 45.2727 842.185 45.2727C842.856 45.2727 843.392 45.1231 843.793 44.8239C844.195 44.5208 844.396 44.142 844.396 43.6875C844.396 43.3352 844.278 43.0398 844.043 42.8011C843.808 42.5587 843.452 42.3807 842.975 42.267L841.549 41.9261C840.791 41.7443 840.231 41.4564 839.867 41.0625C839.504 40.6686 839.322 40.1799 839.322 39.5966C839.322 39.1155 839.452 38.6932 839.714 38.3295C839.975 37.9621 840.335 37.6742 840.793 37.4659C841.252 37.2576 841.774 37.1534 842.362 37.1534C843.161 37.1534 843.799 37.3352 844.276 37.6989C844.757 38.0587 845.104 38.5549 845.316 39.1875ZM854.366 46V34.3636H858.121C858.947 34.3636 859.637 34.5133 860.19 34.8125C860.746 35.108 861.165 35.5189 861.445 36.0455C861.729 36.5682 861.871 37.1686 861.871 37.8466C861.871 38.5246 861.729 39.1231 861.445 39.642C861.165 40.161 860.748 40.5663 860.195 40.858C859.642 41.1496 858.957 41.2955 858.138 41.2955H854.94V40.3239H858.11C858.716 40.3239 859.22 40.2235 859.621 40.0227C860.027 39.822 860.328 39.536 860.525 39.1648C860.726 38.7936 860.826 38.3542 860.826 37.8466C860.826 37.339 860.726 36.8958 860.525 36.517C860.324 36.1345 860.021 35.839 859.616 35.6307C859.214 35.4223 858.707 35.3182 858.093 35.3182H855.428V46H854.366ZM859.496 40.75L862.36 46H861.133L858.298 40.75H859.496ZM868.684 46.1818C867.87 46.1818 867.165 45.9924 866.57 45.6136C865.976 45.2311 865.515 44.7027 865.19 44.0284C864.868 43.3504 864.707 42.5701 864.707 41.6875C864.707 40.8087 864.868 40.0284 865.19 39.3466C865.515 38.661 865.964 38.125 866.536 37.7386C867.112 37.3485 867.777 37.1534 868.531 37.1534C869.004 37.1534 869.46 37.2405 869.9 37.4148C870.339 37.5852 870.733 37.8485 871.082 38.2045C871.434 38.5568 871.712 39.0019 871.917 39.5398C872.121 40.0739 872.224 40.7064 872.224 41.4375V41.9375H865.406V41.0455H871.19C871.19 40.4848 871.076 39.9811 870.849 39.5341C870.625 39.0833 870.313 38.7273 869.911 38.4659C869.513 38.2045 869.053 38.0739 868.531 38.0739C867.978 38.0739 867.491 38.2216 867.07 38.517C866.65 38.8125 866.32 39.2027 866.082 39.6875C865.847 40.1723 865.728 40.7027 865.724 41.2784V41.8125C865.724 42.5057 865.843 43.1117 866.082 43.6307C866.324 44.1458 866.667 44.5455 867.11 44.8295C867.553 45.1136 868.078 45.2557 868.684 45.2557C869.097 45.2557 869.459 45.1913 869.769 45.0625C870.084 44.9337 870.347 44.7614 870.559 44.5455C870.775 44.3258 870.938 44.0852 871.048 43.8239L872.008 44.1364C871.875 44.5038 871.657 44.8428 871.354 45.1534C871.055 45.464 870.68 45.714 870.229 45.9034C869.782 46.089 869.267 46.1818 868.684 46.1818ZM881.316 39.1875L880.39 39.4489C880.299 39.1875 880.17 38.9508 880.004 38.7386C879.837 38.5265 879.619 38.358 879.35 38.233C879.085 38.108 878.755 38.0455 878.362 38.0455C877.771 38.0455 877.286 38.1856 876.907 38.4659C876.528 38.7462 876.339 39.108 876.339 39.5511C876.339 39.9261 876.468 40.2311 876.725 40.4659C876.987 40.697 877.388 40.8807 877.93 41.017L879.248 41.3409C879.979 41.5189 880.526 41.8011 880.89 42.1875C881.257 42.5739 881.441 43.0587 881.441 43.642C881.441 44.1345 881.305 44.572 881.032 44.9545C880.759 45.3371 880.379 45.6383 879.89 45.858C879.405 46.0739 878.843 46.1818 878.202 46.1818C877.35 46.1818 876.647 45.9905 876.094 45.608C875.541 45.2216 875.187 44.6648 875.032 43.9375L876.004 43.6989C876.129 44.2178 876.373 44.6098 876.737 44.875C877.104 45.1402 877.587 45.2727 878.185 45.2727C878.856 45.2727 879.392 45.1231 879.793 44.8239C880.195 44.5208 880.396 44.142 880.396 43.6875C880.396 43.3352 880.278 43.0398 880.043 42.8011C879.808 42.5587 879.452 42.3807 878.975 42.267L877.549 41.9261C876.791 41.7443 876.231 41.4564 875.867 41.0625C875.504 40.6686 875.322 40.1799 875.322 39.5966C875.322 39.1155 875.452 38.6932 875.714 38.3295C875.975 37.9621 876.335 37.6742 876.793 37.4659C877.252 37.2576 877.774 37.1534 878.362 37.1534C879.161 37.1534 879.799 37.3352 880.276 37.6989C880.757 38.0587 881.104 38.5549 881.316 39.1875ZM888.184 46.1818C887.37 46.1818 886.665 45.9924 886.07 45.6136C885.476 45.2311 885.015 44.7027 884.69 44.0284C884.368 43.3504 884.207 42.5701 884.207 41.6875C884.207 40.8087 884.368 40.0284 884.69 39.3466C885.015 38.661 885.464 38.125 886.036 37.7386C886.612 37.3485 887.277 37.1534 888.031 37.1534C888.504 37.1534 888.96 37.2405 889.4 37.4148C889.839 37.5852 890.233 37.8485 890.582 38.2045C890.934 38.5568 891.212 39.0019 891.417 39.5398C891.621 40.0739 891.724 40.7064 891.724 41.4375V41.9375H884.906V41.0455H890.69C890.69 40.4848 890.576 39.9811 890.349 39.5341C890.125 39.0833 889.813 38.7273 889.411 38.4659C889.013 38.2045 888.553 38.0739 888.031 38.0739C887.478 38.0739 886.991 38.2216 886.57 38.517C886.15 38.8125 885.82 39.2027 885.582 39.6875C885.347 40.1723 885.228 40.7027 885.224 41.2784V41.8125C885.224 42.5057 885.343 43.1117 885.582 43.6307C885.824 44.1458 886.167 44.5455 886.61 44.8295C887.053 45.1136 887.578 45.2557 888.184 45.2557C888.597 45.2557 888.959 45.1913 889.269 45.0625C889.584 44.9337 889.847 44.7614 890.059 44.5455C890.275 44.3258 890.438 44.0852 890.548 43.8239L891.508 44.1364C891.375 44.5038 891.157 44.8428 890.854 45.1534C890.555 45.464 890.18 45.714 889.729 45.9034C889.282 46.089 888.767 46.1818 888.184 46.1818ZM894.952 46V37.2727H895.935V38.6136H896.009C896.183 38.1742 896.487 37.8201 896.918 37.5511C897.354 37.2784 897.846 37.142 898.396 37.142C898.479 37.142 898.572 37.1439 898.674 37.1477C898.776 37.1515 898.862 37.1553 898.93 37.1591V38.1875C898.884 38.1799 898.805 38.1686 898.691 38.1534C898.577 38.1383 898.454 38.1307 898.322 38.1307C897.867 38.1307 897.462 38.2273 897.106 38.4205C896.754 38.6098 896.475 38.8731 896.271 39.2102C896.066 39.5473 895.964 39.9318 895.964 40.3636V46H894.952ZM908.677 37.2727L905.489 46H904.41L901.222 37.2727H902.319L904.91 44.6648H904.989L907.58 37.2727H908.677ZM914.871 46.1818C914.057 46.1818 913.353 45.9924 912.758 45.6136C912.163 45.2311 911.703 44.7027 911.377 44.0284C911.055 43.3504 910.894 42.5701 910.894 41.6875C910.894 40.8087 911.055 40.0284 911.377 39.3466C911.703 38.661 912.152 38.125 912.724 37.7386C913.299 37.3485 913.964 37.1534 914.718 37.1534C915.192 37.1534 915.648 37.2405 916.087 37.4148C916.527 37.5852 916.921 37.8485 917.269 38.2045C917.621 38.5568 917.9 39.0019 918.104 39.5398C918.309 40.0739 918.411 40.7064 918.411 41.4375V41.9375H911.593V41.0455H917.377C917.377 40.4848 917.263 39.9811 917.036 39.5341C916.813 39.0833 916.5 38.7273 916.099 38.4659C915.701 38.2045 915.241 38.0739 914.718 38.0739C914.165 38.0739 913.678 38.2216 913.258 38.517C912.837 38.8125 912.508 39.2027 912.269 39.6875C912.034 40.1723 911.915 40.7027 911.911 41.2784V41.8125C911.911 42.5057 912.031 43.1117 912.269 43.6307C912.512 44.1458 912.854 44.5455 913.298 44.8295C913.741 45.1136 914.265 45.2557 914.871 45.2557C915.284 45.2557 915.646 45.1913 915.957 45.0625C916.271 44.9337 916.534 44.7614 916.746 44.5455C916.962 44.3258 917.125 44.0852 917.235 43.8239L918.195 44.1364C918.063 44.5038 917.845 44.8428 917.542 45.1534C917.243 45.464 916.868 45.714 916.417 45.9034C915.97 46.089 915.455 46.1818 914.871 46.1818ZM924.782 46.1818C924.066 46.1818 923.439 45.9924 922.901 45.6136C922.363 45.2348 921.943 44.7064 921.64 44.0284C921.341 43.3504 921.191 42.5606 921.191 41.6591C921.191 40.7614 921.341 39.9754 921.64 39.3011C921.943 38.6231 922.365 38.0966 922.907 37.7216C923.449 37.3428 924.079 37.1534 924.799 37.1534C925.329 37.1534 925.771 37.2481 926.123 37.4375C926.475 37.6231 926.757 37.8542 926.969 38.1307C927.182 38.4072 927.346 38.6761 927.464 38.9375H927.555V34.3636H928.572V46H927.583V44.3807H927.464C927.346 44.6458 927.18 44.9186 926.964 45.1989C926.748 45.4754 926.462 45.7083 926.106 45.8977C925.754 46.0871 925.312 46.1818 924.782 46.1818ZM924.901 45.2557C925.466 45.2557 925.947 45.1023 926.344 44.7955C926.742 44.4848 927.045 44.0587 927.254 43.517C927.466 42.9716 927.572 42.3466 927.572 41.642C927.572 40.9451 927.468 40.3295 927.259 39.7955C927.051 39.2576 926.748 38.8371 926.35 38.5341C925.952 38.2273 925.469 38.0739 924.901 38.0739C924.318 38.0739 923.826 38.233 923.424 38.5511C923.026 38.8655 922.723 39.2917 922.515 39.8295C922.31 40.3674 922.208 40.9716 922.208 41.642C922.208 42.3201 922.312 42.9318 922.521 43.4773C922.729 44.0227 923.032 44.4564 923.43 44.7784C923.831 45.0966 924.322 45.2557 924.901 45.2557Z" fill="#4B5768"/>
</g>
</g>
<defs>
<filter id="filter0_b_2282_8976" x="-4" y="-4" width="1448" height="88" filterUnits="userSpaceOnUse" color-interpolation-filters="sRGB">
<feFlood flood-opacity="0" result="BackgroundImageFix"/>
<feGaussianBlur in="BackgroundImageFix" stdDeviation="2"/>
<feComposite in2="SourceAlpha" operator="in" result="effect1_backgroundBlur_2282_8976"/>
<feBlend mode="normal" in="SourceGraphic" in2="effect1_backgroundBlur_2282_8976" result="shape"/>
</filter>
<clipPath id="clip0_2282_8976">
<rect width="1232" height="24" fill="white" transform="translate(104 28)"/>
</clipPath>
</defs>
</svg>
