<svg width="158" height="19" viewBox="0 0 158 19" fill="none" xmlns="http://www.w3.org/2000/svg">
<g style="mix-blend-mode:screen">
<path d="M2.66155 18.8956C2.1736 18.8956 1.72262 18.7773 1.3086 18.5407C0.909364 18.3041 0.591456 17.9862 0.354874 17.587C0.118291 17.173 0 16.722 0 16.234L4.39072e-05 12.7734L1.79655 13.8196V16.234C1.79655 16.4706 1.87787 16.6776 2.04052 16.8551C2.21796 17.0177 2.42497 17.099 2.66155 17.099H13.3078C13.5443 17.099 13.744 17.0177 13.9066 16.8551C14.084 16.6776 14.1728 16.4706 14.1728 16.234V12.6631C14.1728 12.4265 14.084 12.2269 13.9066 12.0643C13.744 11.9016 13.5443 11.8203 13.3078 11.8203H2.66155C2.1736 11.8203 1.72262 11.702 1.3086 11.4654C0.909364 11.214 0.591456 10.8887 0.354874 10.4895C0.118291 10.0903 0 9.64669 0 9.15874V5.58782C0 5.09987 0.118291 4.65628 0.354874 4.25705C0.591456 3.84303 0.909364 3.51773 1.3086 3.28114C1.72262 3.04456 2.1736 2.92627 2.66155 2.92627H13.3078C13.7957 2.92627 14.2393 3.04456 14.6385 3.28114C15.0526 3.51773 15.3779 3.84303 15.6144 4.25705C15.851 4.65628 15.9693 5.09987 15.9693 5.58782V9.04901L14.1753 8.01345L14.1728 5.58782C14.1728 5.35124 14.084 5.15162 13.9066 4.98897C13.744 4.81153 13.5443 4.72282 13.3078 4.72282H2.66155C2.42497 4.72282 2.21796 4.81153 2.04052 4.98897C1.87787 5.15162 1.79655 5.35124 1.79655 5.58782V9.15874C1.79655 9.39532 1.87787 9.59494 2.04052 9.75759C2.21796 9.92024 2.42497 10.0016 2.66155 10.0016H13.3078C13.7957 10.0016 14.2393 10.1272 14.6385 10.3786C15.0526 10.6152 15.3779 10.9331 15.6144 11.3323C15.851 11.7316 15.9693 12.1752 15.9693 12.6631V16.234C15.9693 16.722 15.851 17.173 15.6144 17.587C15.3779 17.9862 15.0526 18.3041 14.6385 18.5407C14.2393 18.7773 13.7957 18.8956 13.3078 18.8956H2.66155Z" fill="#00FFF2"/>
<path d="M21.5918 18.8955V5.33707L23.5087 6.45869V18.8955H21.5918ZM21.5918 2.81239V0.895508H23.5087V2.81239H21.5918Z" fill="#00FFF2"/>
<path d="M31.9585 18.8955C31.4442 18.8955 30.9688 18.7708 30.5325 18.5215C30.1117 18.2565 29.7688 17.9137 29.5039 17.4929C29.2546 17.0565 29.1299 16.5812 29.1299 16.0669V0.895508L31.0468 2.00154V16.0669C31.0468 16.3163 31.1325 16.5345 31.3039 16.7215C31.4909 16.8929 31.7091 16.9786 31.9585 16.9786H34.2494V18.8955H31.9585Z" fill="#00FFF2"/>
<path d="M39.8721 18.8955V0.895508L41.789 2.00159V5.33707H50.8591C51.3734 5.33707 51.8409 5.46953 52.2617 5.73447C52.698 5.98382 53.0409 6.32668 53.2902 6.76304C53.5552 7.18382 53.6877 7.65135 53.6877 8.16564V18.8955H51.7708V8.16564C51.7708 7.91629 51.6773 7.7059 51.4902 7.53447C51.3188 7.34746 51.1084 7.25395 50.8591 7.25395H42.724C42.4747 7.25395 42.2565 7.34746 42.0695 7.53447C41.8825 7.7059 41.789 7.91629 41.789 8.16564V18.8955H39.8721Z" fill="#00FFF2"/>
<path d="M62.1381 18.8954C61.6239 18.8954 61.1485 18.7707 60.7122 18.5213C60.2914 18.2564 59.9485 17.9135 59.6836 17.4928C59.4342 17.0564 59.3096 16.5811 59.3096 16.0668V8.16549C59.3096 7.6512 59.4342 7.18367 59.6836 6.76289C59.9485 6.32652 60.2914 5.98367 60.7122 5.73432C61.1485 5.46938 61.6239 5.33691 62.1381 5.33691H70.2732C70.8031 5.33691 71.2784 5.46938 71.6992 5.73432C72.1355 5.98367 72.4784 6.32652 72.7277 6.76289C72.9927 7.18367 73.1252 7.6512 73.1252 8.16549V16.0668C73.1252 16.5811 72.9927 17.0564 72.7277 17.4928C72.4784 17.9135 72.1355 18.2564 71.6992 18.5213C71.2784 18.7707 70.8031 18.8954 70.2732 18.8954H62.1381ZM62.1381 16.9785H70.2732C70.5226 16.9785 70.7329 16.8928 70.9044 16.7213C71.0914 16.5343 71.1849 16.3161 71.1849 16.0668V8.16549C71.1849 7.91614 71.0914 7.70575 70.9044 7.53432C70.7329 7.3473 70.5226 7.2538 70.2732 7.2538H62.1381C61.8888 7.2538 61.6706 7.3473 61.4836 7.53432C61.3122 7.70575 61.2265 7.91614 61.2265 8.16549V16.0668C61.2265 16.3161 61.3122 16.5343 61.4836 16.7213C61.6706 16.8928 61.8888 16.9785 62.1381 16.9785Z" fill="#00FFF2"/>
<path d="M81.5756 18.8954C81.0614 18.8954 80.586 18.7707 80.1497 18.5213C79.7289 18.2564 79.386 17.9135 79.1211 17.4928C78.8717 17.0564 78.7471 16.5811 78.7471 16.0668V5.33691L80.664 6.44425V16.0668C80.664 16.3161 80.7497 16.5343 80.9211 16.7213C81.1081 16.8928 81.3263 16.9785 81.5756 16.9785H89.7107C89.9601 16.9785 90.1782 16.8928 90.3653 16.7213C90.5523 16.5343 90.6458 16.3161 90.6458 16.0668V5.33691L92.5627 6.44493V16.0668C92.5627 16.5811 92.4302 17.0564 92.1653 17.4928C91.9159 17.9135 91.573 18.2564 91.1367 18.5213C90.7159 18.7707 90.2406 18.8954 89.7107 18.8954H81.5756Z" fill="#00FFF2"/>
<path d="M101.003 18.8954C100.49 18.8954 100.017 18.7707 99.582 18.5213C99.1628 18.2564 98.8212 17.9135 98.5572 17.4928C98.3088 17.0564 98.1846 16.5811 98.1846 16.0668V8.16549C98.1846 7.6512 98.3088 7.18367 98.5572 6.76289C98.8212 6.32652 99.1628 5.98367 99.582 5.73432C100.017 5.46938 100.49 5.33691 101.003 5.33691H109.108C109.636 5.33691 110.11 5.46938 110.529 5.73432C110.964 5.98367 111.305 6.32652 111.554 6.76289C111.818 7.18367 111.95 7.6512 111.95 8.16549V13.0746H100.094V16.0668C100.094 16.3161 100.18 16.5343 100.351 16.7213C100.537 16.8928 100.754 16.9785 101.003 16.9785H111.95V18.8954H101.003ZM100.094 11.1577H110.016V8.16549C110.016 7.91614 109.923 7.70575 109.737 7.53432C109.566 7.3473 109.357 7.2538 109.108 7.2538H101.003C100.754 7.2538 100.537 7.3473 100.351 7.53432C100.18 7.70575 100.094 7.91614 100.094 8.16549V11.1577Z" fill="#00FFF2"/>
<path d="M132.401 18.8955C131.871 18.8955 131.388 18.7708 130.951 18.5215C130.531 18.2565 130.196 17.9137 129.946 17.4929C129.697 17.0565 129.572 16.5812 129.572 16.0669V0.895508L131.489 2.00268V5.33707H137.357V7.25395H131.489V16.0669C131.489 16.3163 131.575 16.5345 131.746 16.7215C131.933 16.8929 132.151 16.9786 132.401 16.9786H137.357V18.8955H132.401Z" fill="#00FFF2"/>
<path d="M120.4 18.895C119.87 18.895 119.387 18.7703 118.951 18.521C118.53 18.2561 118.195 17.9132 117.945 17.4924C117.696 17.0561 117.571 16.5807 117.571 16.0664V0.89502L119.488 2.00219V5.33658H125.356V7.25346H119.488V16.0664C119.488 16.3158 119.574 16.534 119.745 16.721C119.932 16.8924 120.151 16.9781 120.4 16.9781H125.356V18.895H120.4Z" fill="#00FFF2"/>
<path d="M145.798 18.8954C145.285 18.8954 144.812 18.7707 144.377 18.5213C143.958 18.2564 143.616 17.9135 143.352 17.4928C143.104 17.0564 142.979 16.5811 142.979 16.0668V8.16549C142.979 7.6512 143.104 7.18367 143.352 6.76289C143.616 6.32652 143.958 5.98367 144.377 5.73432C144.812 5.46938 145.285 5.33691 145.798 5.33691H153.903C154.431 5.33691 154.905 5.46938 155.324 5.73432C155.759 5.98367 156.1 6.32652 156.349 6.76289C156.613 7.18367 156.745 7.6512 156.745 8.16549V13.0746H144.889V16.0668C144.889 16.3161 144.975 16.5343 145.146 16.7213C145.332 16.8928 145.549 16.9785 145.798 16.9785H156.745V18.8954H145.798ZM144.889 11.1577H154.811V8.16549C154.811 7.91614 154.718 7.70575 154.532 7.53432C154.361 7.3473 154.151 7.2538 153.903 7.2538H145.798C145.549 7.2538 145.332 7.3473 145.146 7.53432C144.975 7.70575 144.889 7.91614 144.889 8.16549V11.1577Z" fill="#00FFF2"/>
</g>
<g style="mix-blend-mode:screen">
<path d="M3.66155 18.8956C3.1736 18.8956 2.72262 18.7773 2.3086 18.5407C1.90936 18.3041 1.59146 17.9862 1.35487 17.587C1.11829 17.173 1 16.722 1 16.234L1.00004 12.7734L2.79655 13.8196V16.234C2.79655 16.4706 2.87787 16.6776 3.04052 16.8551C3.21796 17.0177 3.42497 17.099 3.66155 17.099H14.3078C14.5443 17.099 14.744 17.0177 14.9066 16.8551C15.084 16.6776 15.1728 16.4706 15.1728 16.234V12.6631C15.1728 12.4265 15.084 12.2269 14.9066 12.0643C14.744 11.9016 14.5443 11.8203 14.3078 11.8203H3.66155C3.1736 11.8203 2.72262 11.702 2.3086 11.4654C1.90936 11.214 1.59146 10.8887 1.35487 10.4895C1.11829 10.0903 1 9.64669 1 9.15874V5.58782C1 5.09987 1.11829 4.65628 1.35487 4.25705C1.59146 3.84303 1.90936 3.51773 2.3086 3.28114C2.72262 3.04456 3.1736 2.92627 3.66155 2.92627H14.3078C14.7957 2.92627 15.2393 3.04456 15.6385 3.28114C16.0526 3.51773 16.3779 3.84303 16.6144 4.25705C16.851 4.65628 16.9693 5.09987 16.9693 5.58782V9.04901L15.1753 8.01345L15.1728 5.58782C15.1728 5.35124 15.084 5.15162 14.9066 4.98897C14.744 4.81153 14.5443 4.72282 14.3078 4.72282H3.66155C3.42497 4.72282 3.21796 4.81153 3.04052 4.98897C2.87787 5.15162 2.79655 5.35124 2.79655 5.58782V9.15874C2.79655 9.39532 2.87787 9.59494 3.04052 9.75759C3.21796 9.92024 3.42497 10.0016 3.66155 10.0016H14.3078C14.7957 10.0016 15.2393 10.1272 15.6385 10.3786C16.0526 10.6152 16.3779 10.9331 16.6144 11.3323C16.851 11.7316 16.9693 12.1752 16.9693 12.6631V16.234C16.9693 16.722 16.851 17.173 16.6144 17.587C16.3779 17.9862 16.0526 18.3041 15.6385 18.5407C15.2393 18.7773 14.7957 18.8956 14.3078 18.8956H3.66155Z" fill="#FA00FF"/>
<path d="M22.5918 18.8955V5.33707L24.5087 6.45869V18.8955H22.5918ZM22.5918 2.81239V0.895508H24.5087V2.81239H22.5918Z" fill="#FA00FF"/>
<path d="M32.9585 18.8955C32.4442 18.8955 31.9688 18.7708 31.5325 18.5215C31.1117 18.2565 30.7688 17.9137 30.5039 17.4929C30.2546 17.0565 30.1299 16.5812 30.1299 16.0669V0.895508L32.0468 2.00154V16.0669C32.0468 16.3163 32.1325 16.5345 32.3039 16.7215C32.4909 16.8929 32.7091 16.9786 32.9585 16.9786H35.2494V18.8955H32.9585Z" fill="#FA00FF"/>
<path d="M40.8721 18.8955V0.895508L42.789 2.00159V5.33707H51.8591C52.3734 5.33707 52.8409 5.46953 53.2617 5.73447C53.698 5.98382 54.0409 6.32668 54.2902 6.76304C54.5552 7.18382 54.6877 7.65135 54.6877 8.16564V18.8955H52.7708V8.16564C52.7708 7.91629 52.6773 7.7059 52.4902 7.53447C52.3188 7.34746 52.1084 7.25395 51.8591 7.25395H43.724C43.4747 7.25395 43.2565 7.34746 43.0695 7.53447C42.8825 7.7059 42.789 7.91629 42.789 8.16564V18.8955H40.8721Z" fill="#FA00FF"/>
<path d="M63.1381 18.8954C62.6239 18.8954 62.1485 18.7707 61.7122 18.5213C61.2914 18.2564 60.9485 17.9135 60.6836 17.4928C60.4342 17.0564 60.3096 16.5811 60.3096 16.0668V8.16549C60.3096 7.6512 60.4342 7.18367 60.6836 6.76289C60.9485 6.32652 61.2914 5.98367 61.7122 5.73432C62.1485 5.46938 62.6239 5.33691 63.1381 5.33691H71.2732C71.8031 5.33691 72.2784 5.46938 72.6992 5.73432C73.1355 5.98367 73.4784 6.32652 73.7277 6.76289C73.9927 7.18367 74.1252 7.6512 74.1252 8.16549V16.0668C74.1252 16.5811 73.9927 17.0564 73.7277 17.4928C73.4784 17.9135 73.1355 18.2564 72.6992 18.5213C72.2784 18.7707 71.8031 18.8954 71.2732 18.8954H63.1381ZM63.1381 16.9785H71.2732C71.5226 16.9785 71.7329 16.8928 71.9044 16.7213C72.0914 16.5343 72.1849 16.3161 72.1849 16.0668V8.16549C72.1849 7.91614 72.0914 7.70575 71.9044 7.53432C71.7329 7.3473 71.5226 7.2538 71.2732 7.2538H63.1381C62.8888 7.2538 62.6706 7.3473 62.4836 7.53432C62.3122 7.70575 62.2265 7.91614 62.2265 8.16549V16.0668C62.2265 16.3161 62.3122 16.5343 62.4836 16.7213C62.6706 16.8928 62.8888 16.9785 63.1381 16.9785Z" fill="#FA00FF"/>
<path d="M82.5756 18.8954C82.0614 18.8954 81.586 18.7707 81.1497 18.5213C80.7289 18.2564 80.386 17.9135 80.1211 17.4928C79.8717 17.0564 79.7471 16.5811 79.7471 16.0668V5.33691L81.664 6.44425V16.0668C81.664 16.3161 81.7497 16.5343 81.9211 16.7213C82.1081 16.8928 82.3263 16.9785 82.5756 16.9785H90.7107C90.9601 16.9785 91.1782 16.8928 91.3653 16.7213C91.5523 16.5343 91.6458 16.3161 91.6458 16.0668V5.33691L93.5627 6.44493V16.0668C93.5627 16.5811 93.4302 17.0564 93.1653 17.4928C92.9159 17.9135 92.573 18.2564 92.1367 18.5213C91.7159 18.7707 91.2406 18.8954 90.7107 18.8954H82.5756Z" fill="#FA00FF"/>
<path d="M102.003 18.8954C101.49 18.8954 101.017 18.7707 100.582 18.5213C100.163 18.2564 99.8212 17.9135 99.5572 17.4928C99.3088 17.0564 99.1846 16.5811 99.1846 16.0668V8.16549C99.1846 7.6512 99.3088 7.18367 99.5572 6.76289C99.8212 6.32652 100.163 5.98367 100.582 5.73432C101.017 5.46938 101.49 5.33691 102.003 5.33691H110.108C110.636 5.33691 111.11 5.46938 111.529 5.73432C111.964 5.98367 112.305 6.32652 112.554 6.76289C112.818 7.18367 112.95 7.6512 112.95 8.16549V13.0746H101.094V16.0668C101.094 16.3161 101.18 16.5343 101.351 16.7213C101.537 16.8928 101.754 16.9785 102.003 16.9785H112.95V18.8954H102.003ZM101.094 11.1577H111.016V8.16549C111.016 7.91614 110.923 7.70575 110.737 7.53432C110.566 7.3473 110.357 7.2538 110.108 7.2538H102.003C101.754 7.2538 101.537 7.3473 101.351 7.53432C101.18 7.70575 101.094 7.91614 101.094 8.16549V11.1577Z" fill="#FA00FF"/>
<path d="M133.401 18.8955C132.871 18.8955 132.388 18.7708 131.951 18.5215C131.531 18.2565 131.196 17.9137 130.946 17.4929C130.697 17.0565 130.572 16.5812 130.572 16.0669V0.895508L132.489 2.00268V5.33707H138.357V7.25395H132.489V16.0669C132.489 16.3163 132.575 16.5345 132.746 16.7215C132.933 16.8929 133.151 16.9786 133.401 16.9786H138.357V18.8955H133.401Z" fill="#FA00FF"/>
<path d="M121.4 18.895C120.87 18.895 120.387 18.7703 119.951 18.521C119.53 18.2561 119.195 17.9132 118.945 17.4924C118.696 17.0561 118.571 16.5807 118.571 16.0664V0.89502L120.488 2.00219V5.33658H126.356V7.25346H120.488V16.0664C120.488 16.3158 120.574 16.534 120.745 16.721C120.932 16.8924 121.151 16.9781 121.4 16.9781H126.356V18.895H121.4Z" fill="#FA00FF"/>
<path d="M146.798 18.8954C146.285 18.8954 145.812 18.7707 145.377 18.5213C144.958 18.2564 144.616 17.9135 144.352 17.4928C144.104 17.0564 143.979 16.5811 143.979 16.0668V8.16549C143.979 7.6512 144.104 7.18367 144.352 6.76289C144.616 6.32652 144.958 5.98367 145.377 5.73432C145.812 5.46938 146.285 5.33691 146.798 5.33691H154.903C155.431 5.33691 155.905 5.46938 156.324 5.73432C156.759 5.98367 157.1 6.32652 157.349 6.76289C157.613 7.18367 157.745 7.6512 157.745 8.16549V13.0746H145.889V16.0668C145.889 16.3161 145.975 16.5343 146.146 16.7213C146.332 16.8928 146.549 16.9785 146.798 16.9785H157.745V18.8954H146.798ZM145.889 11.1577H155.811V8.16549C155.811 7.91614 155.718 7.70575 155.532 7.53432C155.361 7.3473 155.151 7.2538 154.903 7.2538H146.798C146.549 7.2538 146.332 7.3473 146.146 7.53432C145.975 7.70575 145.889 7.91614 145.889 8.16549V11.1577Z" fill="#FA00FF"/>
</g>
</svg>
