<svg width="401" height="401" viewBox="0 0 401 401" fill="none" xmlns="http://www.w3.org/2000/svg">
<rect x="0.687988" y="0.653809" width="400" height="400" rx="200" fill="black"/>
<g style="mix-blend-mode:screen" opacity="0.2">
<path d="M105.416 300.654C99.3052 300.654 93.6571 299.172 88.4719 296.209C83.4719 293.246 79.4904 289.265 76.5275 284.265C73.5645 279.08 72.083 273.432 72.083 267.32V213.946L83.333 220.443L94.583 226.939V267.32C94.583 270.283 95.6015 272.876 97.6386 275.098C99.8608 277.135 102.453 278.154 105.416 278.154H238.75C241.713 278.154 244.213 277.135 246.25 275.098C248.472 272.876 249.583 270.283 249.583 267.32V222.598C249.583 219.635 248.472 217.135 246.25 215.098C244.213 213.061 241.713 212.043 238.75 212.043H105.416C99.3052 212.043 93.6571 210.561 88.4719 207.598C83.4719 204.45 79.4904 200.376 76.5275 195.376C73.5645 190.376 72.083 184.82 72.083 178.709V133.987C72.083 127.876 73.5645 122.32 76.5275 117.32C79.4904 112.135 83.4719 108.061 88.4719 105.098C93.6571 102.135 99.3052 100.654 105.416 100.654H238.75C244.861 100.654 250.416 102.135 255.416 105.098C260.602 108.061 264.676 112.135 267.639 117.32C270.602 122.32 272.083 127.876 272.083 133.987V187.423L249.614 174.454L249.583 133.987C249.583 131.024 248.472 128.524 246.25 126.487C244.213 124.265 241.713 123.154 238.75 123.154H105.416C102.453 123.154 99.8608 124.265 97.6386 126.487C95.6015 128.524 94.583 131.024 94.583 133.987V178.709C94.583 181.672 95.6015 184.172 97.6386 186.209C99.8608 188.246 102.453 189.265 105.416 189.265H238.75C244.861 189.265 250.416 190.839 255.416 193.987C260.602 196.95 264.676 200.932 267.639 205.932C270.602 210.932 272.083 216.487 272.083 222.598V267.32C272.083 273.432 270.602 279.08 267.639 284.265C264.676 289.265 260.602 293.246 255.416 296.209C250.416 299.172 244.861 300.654 238.75 300.654H105.416Z" fill="#00FFF2"/>
</g>
<g style="mix-blend-mode:screen" opacity="0.2">
<path d="M110.617 300.654C104.506 300.654 98.858 299.172 93.6728 296.209C88.6728 293.246 84.6913 289.265 81.7284 284.265C78.7654 279.08 77.2839 273.432 77.2839 267.32V213.946L88.5339 220.443L99.7839 226.939V267.32C99.7839 270.283 100.802 272.876 102.839 275.098C105.062 277.135 107.654 278.154 110.617 278.154H243.951C246.914 278.154 249.414 277.135 251.451 275.098C253.673 272.876 254.784 270.283 254.784 267.32V222.598C254.784 219.635 253.673 217.135 251.451 215.098C249.414 213.061 246.914 212.043 243.951 212.043H110.617C104.506 212.043 98.858 210.561 93.6728 207.598C88.6728 204.45 84.6913 200.376 81.7284 195.376C78.7654 190.376 77.2839 184.82 77.2839 178.709V133.987C77.2839 127.876 78.7654 122.32 81.7284 117.32C84.6913 112.135 88.6728 108.061 93.6728 105.098C98.858 102.135 104.506 100.654 110.617 100.654H243.951C250.062 100.654 255.617 102.135 260.617 105.098C265.802 108.061 269.877 112.135 272.84 117.32C275.802 122.32 277.284 127.876 277.284 133.987V187.423L254.815 174.454L254.784 133.987C254.784 131.024 253.673 128.524 251.451 126.487C249.414 124.265 246.914 123.154 243.951 123.154H110.617C107.654 123.154 105.062 124.265 102.839 126.487C100.802 128.524 99.7839 131.024 99.7839 133.987V178.709C99.7839 181.672 100.802 184.172 102.839 186.209C105.062 188.246 107.654 189.265 110.617 189.265H243.951C250.062 189.265 255.617 190.839 260.617 193.987C265.802 196.95 269.877 200.932 272.84 205.932C275.802 210.932 277.284 216.487 277.284 222.598V267.32C277.284 273.432 275.802 279.08 272.84 284.265C269.877 289.265 265.802 293.246 260.617 296.209C255.617 299.172 250.062 300.654 243.951 300.654H110.617Z" fill="#00FFF2"/>
</g>
<g style="mix-blend-mode:screen" opacity="0.2">
<path d="M115.818 300.654C109.707 300.654 104.059 299.172 98.8738 296.209C93.8738 293.246 89.8923 289.265 86.9293 284.265C83.9663 279.08 82.4849 273.432 82.4849 267.32V213.946L93.7349 220.443L104.985 226.939V267.32C104.985 270.283 106.003 272.876 108.04 275.098C110.263 277.135 112.855 278.154 115.818 278.154H249.152C252.114 278.154 254.615 277.135 256.652 275.098C258.874 272.876 259.985 270.283 259.985 267.32V222.598C259.985 219.635 258.874 217.135 256.652 215.098C254.615 213.061 252.114 212.043 249.152 212.043H115.818C109.707 212.043 104.059 210.561 98.8738 207.598C93.8738 204.45 89.8923 200.376 86.9293 195.376C83.9663 190.376 82.4849 184.82 82.4849 178.709V133.987C82.4849 127.876 83.9663 122.32 86.9293 117.32C89.8923 112.135 93.8738 108.061 98.8738 105.098C104.059 102.135 109.707 100.654 115.818 100.654H249.152C255.263 100.654 260.818 102.135 265.818 105.098C271.003 108.061 275.077 112.135 278.04 117.32C281.003 122.32 282.485 127.876 282.485 133.987V187.423L260.016 174.454L259.985 133.987C259.985 131.024 258.874 128.524 256.652 126.487C254.615 124.265 252.114 123.154 249.152 123.154H115.818C112.855 123.154 110.263 124.265 108.04 126.487C106.003 128.524 104.985 131.024 104.985 133.987V178.709C104.985 181.672 106.003 184.172 108.04 186.209C110.263 188.246 112.855 189.265 115.818 189.265H249.152C255.263 189.265 260.818 190.839 265.818 193.987C271.003 196.95 275.077 200.932 278.04 205.932C281.003 210.932 282.485 216.487 282.485 222.598V267.32C282.485 273.432 281.003 279.08 278.04 284.265C275.077 289.265 271.003 293.246 265.818 296.209C260.818 299.172 255.263 300.654 249.152 300.654H115.818Z" fill="#00FFF2"/>
</g>
<g style="mix-blend-mode:screen" opacity="0.2">
<path d="M121.019 300.654C114.908 300.654 109.26 299.172 104.075 296.209C99.0746 293.246 95.0931 289.265 92.1301 284.265C89.1671 279.08 87.6857 273.432 87.6857 267.32V213.946L98.9357 220.443L110.186 226.939V267.32C110.186 270.283 111.204 272.876 113.241 275.098C115.463 277.135 118.056 278.154 121.019 278.154H254.352C257.315 278.154 259.815 277.135 261.852 275.098C264.075 272.876 265.186 270.283 265.186 267.32V222.598C265.186 219.635 264.075 217.135 261.852 215.098C259.815 213.061 257.315 212.043 254.352 212.043H121.019C114.908 212.043 109.26 210.561 104.075 207.598C99.0746 204.45 95.0931 200.376 92.1301 195.376C89.1671 190.376 87.6857 184.82 87.6857 178.709V133.987C87.6857 127.876 89.1671 122.32 92.1301 117.32C95.0931 112.135 99.0746 108.061 104.075 105.098C109.26 102.135 114.908 100.654 121.019 100.654H254.352C260.463 100.654 266.019 102.135 271.019 105.098C276.204 108.061 280.278 112.135 283.241 117.32C286.204 122.32 287.686 127.876 287.686 133.987V187.423L265.217 174.454L265.186 133.987C265.186 131.024 264.075 128.524 261.852 126.487C259.815 124.265 257.315 123.154 254.352 123.154H121.019C118.056 123.154 115.463 124.265 113.241 126.487C111.204 128.524 110.186 131.024 110.186 133.987V178.709C110.186 181.672 111.204 184.172 113.241 186.209C115.463 188.246 118.056 189.265 121.019 189.265H254.352C260.463 189.265 266.019 190.839 271.019 193.987C276.204 196.95 280.278 200.932 283.241 205.932C286.204 210.932 287.686 216.487 287.686 222.598V267.32C287.686 273.432 286.204 279.08 283.241 284.265C280.278 289.265 276.204 293.246 271.019 296.209C266.019 299.172 260.463 300.654 254.352 300.654H121.019Z" fill="#00FFF2"/>
</g>
<g style="mix-blend-mode:screen" opacity="0.2">
<path d="M126.22 300.654C120.109 300.654 114.461 299.172 109.275 296.209C104.275 293.246 100.294 289.265 97.331 284.265C94.3681 279.08 92.8866 273.432 92.8866 267.32V213.946L104.137 220.443L115.387 226.939V267.32C115.387 270.283 116.405 272.876 118.442 275.098C120.664 277.135 123.257 278.154 126.22 278.154H259.553C262.516 278.154 265.016 277.135 267.053 275.098C269.275 272.876 270.387 270.283 270.387 267.32V222.598C270.387 219.635 269.275 217.135 267.053 215.098C265.016 213.061 262.516 212.043 259.553 212.043H126.22C120.109 212.043 114.461 210.561 109.275 207.598C104.275 204.45 100.294 200.376 97.331 195.376C94.3681 190.376 92.8866 184.82 92.8866 178.709V133.987C92.8866 127.876 94.3681 122.32 97.331 117.32C100.294 112.135 104.275 108.061 109.275 105.098C114.461 102.135 120.109 100.654 126.22 100.654H259.553C265.664 100.654 271.22 102.135 276.22 105.098C281.405 108.061 285.479 112.135 288.442 117.32C291.405 122.32 292.887 127.876 292.887 133.987V187.423L270.418 174.454L270.387 133.987C270.387 131.024 269.275 128.524 267.053 126.487C265.016 124.265 262.516 123.154 259.553 123.154H126.22C123.257 123.154 120.664 124.265 118.442 126.487C116.405 128.524 115.387 131.024 115.387 133.987V178.709C115.387 181.672 116.405 184.172 118.442 186.209C120.664 188.246 123.257 189.265 126.22 189.265H259.553C265.664 189.265 271.22 190.839 276.22 193.987C281.405 196.95 285.479 200.932 288.442 205.932C291.405 210.932 292.887 216.487 292.887 222.598V267.32C292.887 273.432 291.405 279.08 288.442 284.265C285.479 289.265 281.405 293.246 276.22 296.209C271.22 299.172 265.664 300.654 259.553 300.654H126.22Z" fill="#00FFF2"/>
</g>
<g style="mix-blend-mode:screen">
<path d="M131.421 300.654C125.31 300.654 119.662 299.172 114.476 296.209C109.476 293.246 105.495 289.265 102.532 284.265C99.569 279.08 98.0875 273.432 98.0875 267.32V213.946L109.338 220.443L120.588 226.939V267.32C120.588 270.283 121.606 272.876 123.643 275.098C125.865 277.135 128.458 278.154 131.421 278.154H264.754C267.717 278.154 270.217 277.135 272.254 275.098C274.476 272.876 275.588 270.283 275.588 267.32V222.598C275.588 219.635 274.476 217.135 272.254 215.098C270.217 213.061 267.717 212.043 264.754 212.043H131.421C125.31 212.043 119.662 210.561 114.476 207.598C109.476 204.45 105.495 200.376 102.532 195.376C99.569 190.376 98.0875 184.82 98.0875 178.709V133.987C98.0875 127.876 99.569 122.32 102.532 117.32C105.495 112.135 109.476 108.061 114.476 105.098C119.662 102.135 125.31 100.654 131.421 100.654H264.754C270.865 100.654 276.421 102.135 281.421 105.098C286.606 108.061 290.68 112.135 293.643 117.32C296.606 122.32 298.087 127.876 298.087 133.987V187.423L275.619 174.454L275.588 133.987C275.588 131.024 274.476 128.524 272.254 126.487C270.217 124.265 267.717 123.154 264.754 123.154H131.421C128.458 123.154 125.865 124.265 123.643 126.487C121.606 128.524 120.588 131.024 120.588 133.987V178.709C120.588 181.672 121.606 184.172 123.643 186.209C125.865 188.246 128.458 189.265 131.421 189.265H264.754C270.865 189.265 276.421 190.839 281.421 193.987C286.606 196.95 290.68 200.932 293.643 205.932C296.606 210.932 298.087 216.487 298.087 222.598V267.32C298.087 273.432 296.606 279.08 293.643 284.265C290.68 289.265 286.606 293.246 281.421 296.209C276.421 299.172 270.865 300.654 264.754 300.654H131.421Z" fill="#00FFF2"/>
</g>
<g style="mix-blend-mode:screen">
<path d="M269.955 100.654C276.066 100.654 281.714 102.135 286.9 105.098C291.9 108.061 295.881 112.043 298.844 117.043C301.807 122.228 303.288 127.876 303.288 133.987L303.288 187.431L280.818 174.464L280.788 133.987C280.788 131.024 279.77 128.432 277.733 126.209C275.511 124.172 272.918 123.154 269.955 123.154L136.622 123.154C133.659 123.154 131.159 124.172 129.122 126.209C126.9 128.432 125.788 131.024 125.788 133.987L125.788 178.709C125.788 181.672 126.9 184.172 129.122 186.209C131.159 188.246 133.659 189.265 136.622 189.265L269.955 189.265C276.066 189.265 281.714 190.746 286.9 193.709C291.9 196.858 295.881 200.932 298.844 205.932C301.807 210.932 303.288 216.487 303.288 222.598L303.288 267.32C303.288 273.432 301.807 278.987 298.844 283.987C295.881 289.172 291.9 293.246 286.9 296.209C281.714 299.172 276.066 300.654 269.955 300.654L136.622 300.654C130.511 300.654 124.955 299.172 119.955 296.209C114.77 293.246 110.696 289.172 107.733 283.987C104.77 278.987 103.288 273.432 103.288 267.32L103.288 213.884L125.757 226.854L125.788 267.32C125.788 270.283 126.9 272.783 129.122 274.82C131.159 277.043 133.659 278.154 136.622 278.154L269.955 278.154C272.918 278.154 275.511 277.043 277.733 274.82C279.77 272.783 280.788 270.283 280.788 267.32L280.788 222.598C280.788 219.635 279.77 217.135 277.733 215.098C275.511 213.061 272.918 212.043 269.955 212.043L136.622 212.043C130.511 212.043 124.955 210.469 119.955 207.32C114.77 204.358 110.696 200.376 107.733 195.376C104.77 190.376 103.288 184.82 103.288 178.709L103.288 133.987C103.288 127.876 104.77 122.228 107.733 117.043C110.696 112.043 114.77 108.061 119.955 105.098C124.955 102.135 130.511 100.654 136.622 100.654L269.955 100.654Z" fill="#FA00FF"/>
</g>
<g style="mix-blend-mode:screen" opacity="0.2">
<path d="M275.156 100.654C281.267 100.654 286.915 102.135 292.1 105.098C297.1 108.061 301.082 112.043 304.045 117.043C307.008 122.228 308.489 127.876 308.489 133.987L308.489 187.431L286.019 174.464L285.989 133.987C285.989 131.024 284.971 128.432 282.934 126.209C280.712 124.172 278.119 123.154 275.156 123.154L141.823 123.154C138.86 123.154 136.36 124.172 134.323 126.209C132.1 128.432 130.989 131.024 130.989 133.987L130.989 178.709C130.989 181.672 132.1 184.172 134.323 186.209C136.36 188.246 138.86 189.265 141.823 189.265L275.156 189.265C281.267 189.265 286.915 190.746 292.1 193.709C297.1 196.858 301.082 200.932 304.045 205.932C307.008 210.932 308.489 216.487 308.489 222.598L308.489 267.32C308.489 273.432 307.008 278.987 304.045 283.987C301.082 289.172 297.1 293.246 292.1 296.209C286.915 299.172 281.267 300.654 275.156 300.654L141.823 300.654C135.712 300.654 130.156 299.172 125.156 296.209C119.971 293.246 115.897 289.172 112.934 283.987C109.971 278.987 108.489 273.432 108.489 267.32L108.489 213.884L130.958 226.854L130.989 267.32C130.989 270.283 132.1 272.783 134.323 274.82C136.36 277.043 138.86 278.154 141.823 278.154L275.156 278.154C278.119 278.154 280.712 277.043 282.934 274.82C284.971 272.783 285.989 270.283 285.989 267.32L285.989 222.598C285.989 219.635 284.971 217.135 282.934 215.098C280.712 213.061 278.119 212.043 275.156 212.043L141.823 212.043C135.712 212.043 130.156 210.469 125.156 207.32C119.971 204.358 115.897 200.376 112.934 195.376C109.971 190.376 108.489 184.82 108.489 178.709L108.489 133.987C108.489 127.876 109.971 122.228 112.934 117.043C115.897 112.043 119.971 108.061 125.156 105.098C130.156 102.135 135.712 100.654 141.823 100.654L275.156 100.654Z" fill="#FA00FF"/>
</g>
<g style="mix-blend-mode:screen" opacity="0.2">
<path d="M280.357 100.654C286.468 100.654 292.116 102.135 297.301 105.098C302.301 108.061 306.283 112.043 309.246 117.043C312.209 122.228 313.69 127.876 313.69 133.987L313.69 187.431L291.22 174.464L291.19 133.987C291.19 131.024 290.172 128.432 288.135 126.209C285.912 124.172 283.32 123.154 280.357 123.154L147.024 123.154C144.061 123.154 141.561 124.172 139.524 126.209C137.301 128.432 136.19 131.024 136.19 133.987L136.19 178.709C136.19 181.672 137.301 184.172 139.524 186.209C141.561 188.246 144.061 189.265 147.024 189.265L280.357 189.265C286.468 189.265 292.116 190.746 297.301 193.709C302.301 196.858 306.283 200.932 309.246 205.932C312.209 210.932 313.69 216.487 313.69 222.598L313.69 267.32C313.69 273.432 312.209 278.987 309.246 283.987C306.283 289.172 302.301 293.246 297.301 296.209C292.116 299.172 286.468 300.654 280.357 300.654L147.024 300.654C140.912 300.654 135.357 299.172 130.357 296.209C125.172 293.246 121.098 289.172 118.135 283.987C115.172 278.987 113.69 273.432 113.69 267.32L113.69 213.884L136.159 226.854L136.19 267.32C136.19 270.283 137.301 272.783 139.524 274.82C141.561 277.043 144.061 278.154 147.024 278.154L280.357 278.154C283.32 278.154 285.912 277.043 288.135 274.82C290.172 272.783 291.19 270.283 291.19 267.32L291.19 222.598C291.19 219.635 290.172 217.135 288.135 215.098C285.912 213.061 283.32 212.043 280.357 212.043L147.024 212.043C140.912 212.043 135.357 210.469 130.357 207.32C125.172 204.358 121.098 200.376 118.135 195.376C115.172 190.376 113.69 184.82 113.69 178.709L113.69 133.987C113.69 127.876 115.172 122.228 118.135 117.043C121.098 112.043 125.172 108.061 130.357 105.098C135.357 102.135 140.913 100.654 147.024 100.654L280.357 100.654Z" fill="#FA00FF"/>
</g>
<g style="mix-blend-mode:screen" opacity="0.2">
<path d="M285.558 100.654C291.669 100.654 297.317 102.135 302.502 105.098C307.502 108.061 311.484 112.043 314.447 117.043C317.41 122.228 318.891 127.876 318.891 133.987L318.891 187.431L296.421 174.464L296.391 133.987C296.391 131.024 295.373 128.432 293.336 126.209C291.113 124.172 288.521 123.154 285.558 123.154L152.225 123.154C149.262 123.154 146.762 124.172 144.725 126.209C142.502 128.432 141.391 131.024 141.391 133.987L141.391 178.709C141.391 181.672 142.502 184.172 144.725 186.209C146.762 188.246 149.262 189.265 152.225 189.265L285.558 189.265C291.669 189.265 297.317 190.746 302.502 193.709C307.502 196.858 311.484 200.932 314.447 205.932C317.41 210.932 318.891 216.487 318.891 222.598L318.891 267.32C318.891 273.432 317.41 278.987 314.447 283.987C311.484 289.172 307.502 293.246 302.502 296.209C297.317 299.172 291.669 300.654 285.558 300.654L152.225 300.654C146.113 300.654 140.558 299.172 135.558 296.209C130.373 293.246 126.299 289.172 123.336 283.987C120.373 278.987 118.891 273.432 118.891 267.32L118.891 213.884L141.36 226.854L141.391 267.32C141.391 270.283 142.502 272.783 144.725 274.82C146.762 277.043 149.262 278.154 152.225 278.154L285.558 278.154C288.521 278.154 291.113 277.043 293.336 274.82C295.373 272.783 296.391 270.283 296.391 267.32L296.391 222.598C296.391 219.635 295.373 217.135 293.336 215.098C291.113 213.061 288.521 212.043 285.558 212.043L152.225 212.043C146.113 212.043 140.558 210.469 135.558 207.32C130.373 204.358 126.299 200.376 123.336 195.376C120.373 190.376 118.891 184.82 118.891 178.709L118.891 133.987C118.891 127.876 120.373 122.228 123.336 117.043C126.299 112.043 130.373 108.061 135.558 105.098C140.558 102.135 146.113 100.654 152.225 100.654L285.558 100.654Z" fill="#FA00FF"/>
</g>
<g style="mix-blend-mode:screen" opacity="0.2">
<path d="M290.759 100.654C296.87 100.654 302.518 102.135 307.703 105.098C312.703 108.061 316.685 112.043 319.648 117.043C322.611 122.228 324.092 127.876 324.092 133.987L324.092 187.431L301.622 174.464L301.592 133.987C301.592 131.024 300.573 128.432 298.536 126.209C296.314 124.172 293.722 123.154 290.759 123.154L157.425 123.154C154.462 123.154 151.962 124.172 149.925 126.209C147.703 128.432 146.592 131.024 146.592 133.987L146.592 178.709C146.592 181.672 147.703 184.172 149.925 186.209C151.962 188.246 154.462 189.265 157.425 189.265L290.759 189.265C296.87 189.265 302.518 190.746 307.703 193.709C312.703 196.858 316.685 200.932 319.648 205.932C322.611 210.932 324.092 216.487 324.092 222.598L324.092 267.32C324.092 273.432 322.611 278.987 319.648 283.987C316.685 289.172 312.703 293.246 307.703 296.209C302.518 299.172 296.87 300.654 290.759 300.654L157.425 300.654C151.314 300.654 145.759 299.172 140.759 296.209C135.573 293.246 131.499 289.172 128.536 283.987C125.573 278.987 124.092 273.432 124.092 267.32L124.092 213.884L146.561 226.854L146.592 267.32C146.592 270.283 147.703 272.783 149.925 274.82C151.962 277.043 154.462 278.154 157.425 278.154L290.759 278.154C293.722 278.154 296.314 277.043 298.536 274.82C300.573 272.783 301.592 270.283 301.592 267.32L301.592 222.598C301.592 219.635 300.573 217.135 298.536 215.098C296.314 213.061 293.722 212.043 290.759 212.043L157.425 212.043C151.314 212.043 145.759 210.469 140.759 207.32C135.573 204.358 131.499 200.376 128.536 195.376C125.573 190.376 124.092 184.82 124.092 178.709L124.092 133.987C124.092 127.876 125.573 122.228 128.536 117.043C131.499 112.043 135.573 108.061 140.759 105.098C145.759 102.135 151.314 100.654 157.425 100.654L290.759 100.654Z" fill="#FA00FF"/>
</g>
<g style="mix-blend-mode:screen" opacity="0.2">
<path d="M295.96 100.654C302.071 100.654 307.719 102.135 312.904 105.098C317.904 108.061 321.886 112.043 324.848 117.043C327.811 122.228 329.293 127.876 329.293 133.987L329.293 187.431L306.822 174.464L306.793 133.987C306.793 131.024 305.774 128.432 303.737 126.209C301.515 124.172 298.923 123.154 295.96 123.154L162.626 123.154C159.663 123.154 157.163 124.172 155.126 126.209C152.904 128.432 151.793 131.024 151.793 133.987L151.793 178.709C151.793 181.672 152.904 184.172 155.126 186.209C157.163 188.246 159.663 189.265 162.626 189.265L295.96 189.265C302.071 189.265 307.719 190.746 312.904 193.709C317.904 196.858 321.886 200.932 324.848 205.932C327.811 210.932 329.293 216.487 329.293 222.598L329.293 267.32C329.293 273.432 327.811 278.987 324.848 283.987C321.886 289.172 317.904 293.246 312.904 296.209C307.719 299.172 302.071 300.654 295.96 300.654L162.626 300.654C156.515 300.654 150.96 299.172 145.96 296.209C140.774 293.246 136.7 289.172 133.737 283.987C130.774 278.987 129.293 273.432 129.293 267.32L129.293 213.884L151.761 226.854L151.793 267.32C151.793 270.283 152.904 272.783 155.126 274.82C157.163 277.043 159.663 278.154 162.626 278.154L295.96 278.154C298.923 278.154 301.515 277.043 303.737 274.82C305.774 272.783 306.793 270.283 306.793 267.32L306.793 222.598C306.793 219.635 305.774 217.135 303.737 215.098C301.515 213.061 298.923 212.043 295.96 212.043L162.626 212.043C156.515 212.043 150.96 210.469 145.96 207.32C140.774 204.358 136.7 200.376 133.737 195.376C130.774 190.376 129.293 184.82 129.293 178.709L129.293 133.987C129.293 127.876 130.774 122.228 133.737 117.043C136.7 112.043 140.774 108.061 145.96 105.098C150.96 102.135 156.515 100.654 162.626 100.654L295.96 100.654Z" fill="#FA00FF"/>
</g>
<path d="M267.355 100.654C273.466 100.654 279.114 102.135 284.299 105.098C289.299 108.061 293.281 112.043 296.244 117.043C299.207 122.228 300.688 127.876 300.688 133.987L300.688 187.431L278.218 174.464L278.188 133.987C278.188 131.024 277.17 128.432 275.133 126.209C272.91 124.172 270.318 123.154 267.355 123.154L134.021 123.154C131.058 123.154 128.558 124.172 126.521 126.209C124.299 128.432 123.188 131.024 123.188 133.987L123.188 178.709C123.188 181.672 124.299 184.172 126.521 186.209C128.558 188.246 131.058 189.265 134.021 189.265L267.355 189.265C273.466 189.265 279.114 190.746 284.299 193.709C289.299 196.858 293.281 200.932 296.244 205.932C299.207 210.932 300.688 216.487 300.688 222.598L300.688 267.32C300.688 273.432 299.207 278.987 296.244 283.987C293.281 289.172 289.299 293.246 284.299 296.209C279.114 299.172 273.466 300.654 267.355 300.654L134.021 300.654C127.91 300.654 122.355 299.172 117.355 296.209C112.17 293.246 108.095 289.172 105.132 283.987C102.17 278.987 100.688 273.432 100.688 267.32L100.688 213.884L123.157 226.854L123.188 267.32C123.188 270.283 124.299 272.783 126.521 274.82C128.558 277.043 131.058 278.154 134.021 278.154L267.355 278.154C270.318 278.154 272.91 277.043 275.133 274.82C277.17 272.783 278.188 270.283 278.188 267.32L278.188 222.598C278.188 219.635 277.17 217.135 275.133 215.098C272.91 213.061 270.318 212.043 267.355 212.043L134.021 212.043C127.91 212.043 122.355 210.469 117.355 207.32C112.17 204.358 108.095 200.376 105.132 195.376C102.17 190.376 100.688 184.82 100.688 178.709L100.688 133.987C100.688 127.876 102.17 122.228 105.132 117.043C108.095 112.043 112.17 108.061 117.355 105.098C122.355 102.135 127.91 100.654 134.021 100.654L267.355 100.654Z" fill="#FAFFFF"/>
</svg>
