<svg width="2852" height="462" viewBox="0 0 2852 462" fill="none" xmlns="http://www.w3.org/2000/svg">
<g opacity="0.6">
<g style="mix-blend-mode:screen" opacity="0.09">
<path d="M1194.14 1.1604L0.999318 459.163" stroke="#FA00FF" stroke-width="1.14501"/>
<path d="M1214.05 1.1604L315.169 459.163" stroke="#FA00FF" stroke-width="1.14501"/>
<path d="M1233.96 1.1604L528.699 459.163" stroke="#FA00FF" stroke-width="1.14501"/>
<path d="M1253.88 1.1604L688.289 459.163" stroke="#FA00FF" stroke-width="1.14501"/>
<path d="M1273.79 1.1604L815.786 459.163" stroke="#FA00FF" stroke-width="1.14501"/>
<path d="M1293.7 1.1604L922.818 459.162" stroke="#FA00FF" stroke-width="1.14501"/>
<path d="M1313.61 1.1604L1016.18 459.163" stroke="#FA00FF" stroke-width="1.14501"/>
<path d="M1333.53 1.1604L1100.16 459.163" stroke="#FA00FF" stroke-width="1.14501"/>
<path d="M1353.44 1.1604L1177.63 459.163" stroke="#FA00FF" stroke-width="1.14501"/>
<path d="M1373.35 1.1604L1250.63 459.163" stroke="#FA00FF" stroke-width="1.14501"/>
<path d="M1393.27 1.1604L1320.73 459.163" stroke="#FA00FF" stroke-width="1.14501"/>
<path d="M1413.18 1.1604L1389.18 459.163" stroke="#FA00FF" stroke-width="1.14501"/>
<path d="M1433.09 1.1604L1457.1 459.163" stroke="#FA00FF" stroke-width="1.14501"/>
<path d="M1453.01 1.1604L1525.55 459.163" stroke="#FA00FF" stroke-width="1.14501"/>
<path d="M1472.92 1.1604L1595.64 459.163" stroke="#FA00FF" stroke-width="1.14501"/>
<path d="M1492.83 1.1604L1668.64 459.163" stroke="#FA00FF" stroke-width="1.14501"/>
<path d="M1512.75 1.1604L1746.11 459.163" stroke="#FA00FF" stroke-width="1.14501"/>
<path d="M1532.66 1.1604L1830.09 459.163" stroke="#FA00FF" stroke-width="1.14501"/>
<path d="M1552.57 1.1604L1923.46 459.162" stroke="#FA00FF" stroke-width="1.14501"/>
<path d="M1572.49 1.1604L2030.49 459.163" stroke="#FA00FF" stroke-width="1.14501"/>
<path d="M1592.4 1.1604L2157.98 459.163" stroke="#FA00FF" stroke-width="1.14501"/>
<path d="M1612.31 1.1604L2317.57 459.163" stroke="#FA00FF" stroke-width="1.14501"/>
<path d="M1632.22 1.1604L2531.1 459.163" stroke="#FA00FF" stroke-width="1.14501"/>
<path d="M1652.14 1.1604L2845.28 459.163" stroke="#FA00FF" stroke-width="1.14501"/>
<path d="M1194.14 1.1604H1652.14" stroke="#FA00FF" stroke-width="1.14501"/>
<path d="M1194.14 1.1604H1652.14" stroke="#FA00FF" stroke-width="1.14501"/>
<path d="M1194.14 1.1604H1652.14" stroke="#FA00FF" stroke-width="1.14501"/>
<path d="M1194.14 1.1604H1652.14" stroke="#FA00FF" stroke-width="1.14501"/>
<path d="M1194.14 1.1604H1652.14" stroke="#FA00FF" stroke-width="1.14501"/>
<path d="M1194.14 1.1604H1652.14" stroke="#FA00FF" stroke-width="1.14501"/>
<path d="M1194.14 1.1604H1652.14" stroke="#FA00FF" stroke-width="1.14501"/>
<path d="M1194.13 1.1604H1652.14" stroke="#FA00FF" stroke-width="1.14501"/>
<path d="M1194.13 1.1604H1652.14" stroke="#FA00FF" stroke-width="1.14501"/>
<path d="M1194.13 1.1604H1652.14" stroke="#FA00FF" stroke-width="1.14501"/>
<path d="M1194.13 1.16089H1652.14" stroke="#FA00FF" stroke-width="1.14501"/>
<path d="M1194.13 1.16162H1652.14" stroke="#FA00FF" stroke-width="1.14501"/>
<path d="M1194.13 1.1626H1652.14" stroke="#FA00FF" stroke-width="1.14501"/>
<path d="M1194.12 1.16553H1652.15" stroke="#FA00FF" stroke-width="1.14501"/>
<path d="M1194.11 1.16919H1652.16" stroke="#FA00FF" stroke-width="1.14501"/>
<path d="M1194.09 1.17603H1652.18" stroke="#FA00FF" stroke-width="1.14501"/>
<path d="M1194.07 1.18677H1652.21" stroke="#FA00FF" stroke-width="1.14501"/>
<path d="M1194.02 1.20288H1652.25" stroke="#FA00FF" stroke-width="1.14501"/>
<path d="M1193.96 1.22754H1652.31" stroke="#FA00FF" stroke-width="1.14501"/>
<path d="M1193.87 1.26318H1652.41" stroke="#FA00FF" stroke-width="1.14501"/>
<path d="M1193.73 1.31519H1652.54" stroke="#FA00FF" stroke-width="1.14501"/>
<path d="M1193.54 1.38794H1652.73" stroke="#FA00FF" stroke-width="1.14501"/>
<path d="M1193.28 1.48926H1652.99" stroke="#FA00FF" stroke-width="1.14501"/>
<path d="M1192.92 1.62769H1653.36" stroke="#FA00FF" stroke-width="1.14501"/>
<path d="M1192.43 1.81445H1653.84" stroke="#FA00FF" stroke-width="1.14501"/>
<path d="M1191.78 2.06323H1654.49" stroke="#FA00FF" stroke-width="1.14501"/>
<path d="M1190.93 2.3916H1655.34" stroke="#FA00FF" stroke-width="1.14501"/>
<path d="M1189.81 2.8186H1656.46" stroke="#FA00FF" stroke-width="1.14501"/>
<path d="M1188.38 3.37109H1657.9" stroke="#FA00FF" stroke-width="1.14501"/>
<path d="M1186.54 4.07715H1659.74" stroke="#FA00FF" stroke-width="1.14501"/>
<path d="M1184.2 4.97339H1662.07" stroke="#FA00FF" stroke-width="1.14501"/>
<path d="M1181.27 6.10059H1665.01" stroke="#FA00FF" stroke-width="1.14501"/>
<path d="M1177.6 7.50879H1668.68" stroke="#FA00FF" stroke-width="1.14501"/>
<path d="M1173.04 9.25586H1673.23" stroke="#FA00FF" stroke-width="1.14501"/>
<path d="M1167.44 11.4094H1678.84" stroke="#FA00FF" stroke-width="1.14501"/>
<path d="M1160.56 14.0469H1685.71" stroke="#FA00FF" stroke-width="1.14501"/>
<path d="M1152.2 17.2588H1694.08" stroke="#FA00FF" stroke-width="1.14501"/>
<path d="M1142.06 21.1494H1704.21" stroke="#FA00FF" stroke-width="1.14501"/>
<path d="M1129.85 25.8374H1716.42" stroke="#FA00FF" stroke-width="1.14501"/>
<path d="M1115.21 31.4583H1731.07" stroke="#FA00FF" stroke-width="1.14501"/>
<path d="M1097.73 38.167H1748.54" stroke="#FA00FF" stroke-width="1.14501"/>
<path d="M1076.96 46.1377H1769.31" stroke="#FA00FF" stroke-width="1.14501"/>
<path d="M1052.39 55.5693H1793.88" stroke="#FA00FF" stroke-width="1.14501"/>
<path d="M1023.44 66.6843H1822.84" stroke="#FA00FF" stroke-width="1.14501"/>
<path d="M989.445 79.7339H1856.83" stroke="#FA00FF" stroke-width="1.14501"/>
<path d="M949.679 94.9988H1896.6" stroke="#FA00FF" stroke-width="1.14501"/>
<path d="M903.325 112.792H1942.95" stroke="#FA00FF" stroke-width="1.14501"/>
<path d="M849.472 133.465H1996.81" stroke="#FA00FF" stroke-width="1.14501"/>
<path d="M787.103 157.406H2059.17" stroke="#FA00FF" stroke-width="1.14501"/>
<path d="M715.095 185.047H2131.18" stroke="#FA00FF" stroke-width="1.14501"/>
<path d="M632.199 216.868H2214.08" stroke="#FA00FF" stroke-width="1.14501"/>
<path d="M537.041 253.396H2309.24" stroke="#FA00FF" stroke-width="1.14501"/>
<path d="M428.098 295.216H2418.18" stroke="#FA00FF" stroke-width="1.14501"/>
<path d="M303.698 342.968H2542.58" stroke="#FA00FF" stroke-width="1.14501"/>
<path d="M162.004 397.359H2684.27" stroke="#FA00FF" stroke-width="1.14501"/>
<path d="M1.00098 459.163H2845.28" stroke="#FA00FF" stroke-width="1.14501"/>
</g>
<g style="mix-blend-mode:screen" opacity="0.09">
<path d="M1199.86 2.30518L6.7249 460.307" stroke="#00FFF2" stroke-width="1.14501"/>
<path d="M1219.77 2.30518L320.894 460.307" stroke="#00FFF2" stroke-width="1.14501"/>
<path d="M1239.69 2.30518L534.425 460.307" stroke="#00FFF2" stroke-width="1.14501"/>
<path d="M1259.6 2.30518L694.014 460.307" stroke="#00FFF2" stroke-width="1.14501"/>
<path d="M1279.51 2.30518L821.511 460.307" stroke="#00FFF2" stroke-width="1.14501"/>
<path d="M1299.43 2.30518L928.543 460.307" stroke="#00FFF2" stroke-width="1.14501"/>
<path d="M1319.34 2.30518L1021.91 460.307" stroke="#00FFF2" stroke-width="1.14501"/>
<path d="M1339.25 2.30518L1105.89 460.307" stroke="#00FFF2" stroke-width="1.14501"/>
<path d="M1359.17 2.30518L1183.36 460.307" stroke="#00FFF2" stroke-width="1.14501"/>
<path d="M1379.08 2.30518L1256.36 460.307" stroke="#00FFF2" stroke-width="1.14501"/>
<path d="M1398.99 2.30518L1326.45 460.307" stroke="#00FFF2" stroke-width="1.14501"/>
<path d="M1418.91 2.30518L1394.9 460.307" stroke="#00FFF2" stroke-width="1.14501"/>
<path d="M1438.82 2.30518L1462.82 460.307" stroke="#00FFF2" stroke-width="1.14501"/>
<path d="M1458.73 2.30518L1531.27 460.307" stroke="#00FFF2" stroke-width="1.14501"/>
<path d="M1478.64 2.30518L1601.37 460.307" stroke="#00FFF2" stroke-width="1.14501"/>
<path d="M1498.56 2.30518L1674.37 460.307" stroke="#00FFF2" stroke-width="1.14501"/>
<path d="M1518.47 2.30518L1751.83 460.307" stroke="#00FFF2" stroke-width="1.14501"/>
<path d="M1538.38 2.30518L1835.81 460.307" stroke="#00FFF2" stroke-width="1.14501"/>
<path d="M1558.3 2.30518L1929.18 460.307" stroke="#00FFF2" stroke-width="1.14501"/>
<path d="M1578.21 2.30518L2036.21 460.307" stroke="#00FFF2" stroke-width="1.14501"/>
<path d="M1598.12 2.30518L2163.71 460.307" stroke="#00FFF2" stroke-width="1.14501"/>
<path d="M1618.04 2.30518L2323.3 460.307" stroke="#00FFF2" stroke-width="1.14501"/>
<path d="M1637.95 2.30518L2536.83 460.307" stroke="#00FFF2" stroke-width="1.14501"/>
<path d="M1657.86 2.30518L2851 460.307" stroke="#00FFF2" stroke-width="1.14501"/>
<path d="M1199.86 2.30518H1657.86" stroke="#00FFF2" stroke-width="1.14501"/>
<path d="M1199.86 2.30518H1657.86" stroke="#00FFF2" stroke-width="1.14501"/>
<path d="M1199.86 2.30518H1657.86" stroke="#00FFF2" stroke-width="1.14501"/>
<path d="M1199.86 2.30518H1657.86" stroke="#00FFF2" stroke-width="1.14501"/>
<path d="M1199.86 2.30518H1657.86" stroke="#00FFF2" stroke-width="1.14501"/>
<path d="M1199.86 2.30518H1657.86" stroke="#00FFF2" stroke-width="1.14501"/>
<path d="M1199.86 2.30518H1657.86" stroke="#00FFF2" stroke-width="1.14501"/>
<path d="M1199.86 2.30518H1657.86" stroke="#00FFF2" stroke-width="1.14501"/>
<path d="M1199.86 2.30518H1657.86" stroke="#00FFF2" stroke-width="1.14501"/>
<path d="M1199.86 2.30518H1657.86" stroke="#00FFF2" stroke-width="1.14501"/>
<path d="M1199.86 2.30591H1657.86" stroke="#00FFF2" stroke-width="1.14501"/>
<path d="M1199.86 2.3064H1657.87" stroke="#00FFF2" stroke-width="1.14501"/>
<path d="M1199.85 2.30762H1657.87" stroke="#00FFF2" stroke-width="1.14501"/>
<path d="M1199.85 2.3103H1657.88" stroke="#00FFF2" stroke-width="1.14501"/>
<path d="M1199.84 2.31421H1657.89" stroke="#00FFF2" stroke-width="1.14501"/>
<path d="M1199.82 2.32104H1657.9" stroke="#00FFF2" stroke-width="1.14501"/>
<path d="M1199.79 2.33154H1657.93" stroke="#00FFF2" stroke-width="1.14501"/>
<path d="M1199.75 2.3479H1657.97" stroke="#00FFF2" stroke-width="1.14501"/>
<path d="M1199.69 2.37231H1658.04" stroke="#00FFF2" stroke-width="1.14501"/>
<path d="M1199.59 2.4082H1658.13" stroke="#00FFF2" stroke-width="1.14501"/>
<path d="M1199.46 2.46021H1658.27" stroke="#00FFF2" stroke-width="1.14501"/>
<path d="M1199.27 2.53296H1658.46" stroke="#00FFF2" stroke-width="1.14501"/>
<path d="M1199 2.63379H1658.72" stroke="#00FFF2" stroke-width="1.14501"/>
<path d="M1198.64 2.77271H1659.08" stroke="#00FFF2" stroke-width="1.14501"/>
<path d="M1198.16 2.95947H1659.57" stroke="#00FFF2" stroke-width="1.14501"/>
<path d="M1197.51 3.20825H1660.22" stroke="#00FFF2" stroke-width="1.14501"/>
<path d="M1196.65 3.53662H1661.07" stroke="#00FFF2" stroke-width="1.14501"/>
<path d="M1195.54 3.96362H1662.18" stroke="#00FFF2" stroke-width="1.14501"/>
<path d="M1194.1 4.51587H1663.62" stroke="#00FFF2" stroke-width="1.14501"/>
<path d="M1192.26 5.22192H1665.46" stroke="#00FFF2" stroke-width="1.14501"/>
<path d="M1189.93 6.11841H1667.8" stroke="#00FFF2" stroke-width="1.14501"/>
<path d="M1186.99 7.24536H1670.73" stroke="#00FFF2" stroke-width="1.14501"/>
<path d="M1183.32 8.65381H1674.4" stroke="#00FFF2" stroke-width="1.14501"/>
<path d="M1178.77 10.4009H1678.95" stroke="#00FFF2" stroke-width="1.14501"/>
<path d="M1173.16 12.5544H1684.56" stroke="#00FFF2" stroke-width="1.14501"/>
<path d="M1166.29 15.1917H1691.43" stroke="#00FFF2" stroke-width="1.14501"/>
<path d="M1157.92 18.4036H1699.8" stroke="#00FFF2" stroke-width="1.14501"/>
<path d="M1147.79 22.2939H1709.94" stroke="#00FFF2" stroke-width="1.14501"/>
<path d="M1135.58 26.9822H1722.15" stroke="#00FFF2" stroke-width="1.14501"/>
<path d="M1120.93 32.6033H1736.79" stroke="#00FFF2" stroke-width="1.14501"/>
<path d="M1103.46 39.3118H1754.27" stroke="#00FFF2" stroke-width="1.14501"/>
<path d="M1082.69 47.2825H1775.03" stroke="#00FFF2" stroke-width="1.14501"/>
<path d="M1058.12 56.7144H1799.6" stroke="#00FFF2" stroke-width="1.14501"/>
<path d="M1029.16 67.8296H1828.56" stroke="#00FFF2" stroke-width="1.14501"/>
<path d="M995.169 80.8792H1862.56" stroke="#00FFF2" stroke-width="1.14501"/>
<path d="M955.403 96.1438H1902.32" stroke="#00FFF2" stroke-width="1.14501"/>
<path d="M909.049 113.937H1948.67" stroke="#00FFF2" stroke-width="1.14501"/>
<path d="M855.195 134.61H2002.53" stroke="#00FFF2" stroke-width="1.14501"/>
<path d="M792.826 158.551H2064.9" stroke="#00FFF2" stroke-width="1.14501"/>
<path d="M720.818 186.192H2136.91" stroke="#00FFF2" stroke-width="1.14501"/>
<path d="M637.924 218.012H2219.8" stroke="#00FFF2" stroke-width="1.14501"/>
<path d="M542.765 254.541H2314.96" stroke="#00FFF2" stroke-width="1.14501"/>
<path d="M433.82 296.36H2423.9" stroke="#00FFF2" stroke-width="1.14501"/>
<path d="M309.422 344.113H2548.3" stroke="#00FFF2" stroke-width="1.14501"/>
<path d="M167.729 398.503H2690" stroke="#00FFF2" stroke-width="1.14501"/>
<path d="M6.72461 460.307H2851" stroke="#00FFF2" stroke-width="1.14501"/>
</g>
</g>
</svg>
