<svg width="1440" height="80" viewBox="0 0 1440 80" fill="none" xmlns="http://www.w3.org/2000/svg">
<g filter="url(#filter0_b_2282_8979)">
<mask id="path-1-inside-1_2282_8979" fill="white">
<path d="M0 -0.104492H1440V79.8955H0V-0.104492Z"/>
</mask>
<path d="M0 -0.104492H1440V79.8955H0V-0.104492Z" fill="white" fill-opacity="0.01"/>
<path d="M1440 78.8955H0V80.8955H1440V78.8955Z" fill="#111827" mask="url(#path-1-inside-1_2282_8979)"/>
<g style="mix-blend-mode:screen">
<path d="M106.662 48.8956C106.174 48.8956 105.723 48.7773 105.309 48.5407C104.909 48.3041 104.591 47.9862 104.355 47.587C104.118 47.173 104 46.722 104 46.234L104 42.7734L105.797 43.8196V46.234C105.797 46.4706 105.878 46.6776 106.041 46.8551C106.218 47.0177 106.425 47.099 106.662 47.099H117.308C117.544 47.099 117.744 47.0177 117.907 46.8551C118.084 46.6776 118.173 46.4706 118.173 46.234V42.6631C118.173 42.4265 118.084 42.2269 117.907 42.0643C117.744 41.9016 117.544 41.8203 117.308 41.8203H106.662C106.174 41.8203 105.723 41.702 105.309 41.4654C104.909 41.214 104.591 40.8887 104.355 40.4895C104.118 40.0903 104 39.6467 104 39.1587V35.5878C104 35.0999 104.118 34.6563 104.355 34.257C104.591 33.843 104.909 33.5177 105.309 33.2811C105.723 33.0446 106.174 32.9263 106.662 32.9263H117.308C117.796 32.9263 118.239 33.0446 118.639 33.2811C119.053 33.5177 119.378 33.843 119.614 34.257C119.851 34.6563 119.969 35.0999 119.969 35.5878V39.049L118.175 38.0135L118.173 35.5878C118.173 35.3512 118.084 35.1516 117.907 34.989C117.744 34.8115 117.544 34.7228 117.308 34.7228H106.662C106.425 34.7228 106.218 34.8115 106.041 34.989C105.878 35.1516 105.797 35.3512 105.797 35.5878V39.1587C105.797 39.3953 105.878 39.5949 106.041 39.7576C106.218 39.9202 106.425 40.0016 106.662 40.0016H117.308C117.796 40.0016 118.239 40.1272 118.639 40.3786C119.053 40.6152 119.378 40.9331 119.614 41.3323C119.851 41.7316 119.969 42.1752 119.969 42.6631V46.234C119.969 46.722 119.851 47.173 119.614 47.587C119.378 47.9862 119.053 48.3041 118.639 48.5407C118.239 48.7773 117.796 48.8956 117.308 48.8956H106.662Z" fill="#00FFF2"/>
<path d="M125.592 48.8955V35.3371L127.509 36.4587V48.8955H125.592ZM125.592 32.8124V30.8955H127.509V32.8124H125.592Z" fill="#00FFF2"/>
<path d="M135.958 48.8955C135.444 48.8955 134.969 48.7708 134.532 48.5215C134.112 48.2565 133.769 47.9137 133.504 47.4929C133.255 47.0565 133.13 46.5812 133.13 46.0669V30.8955L135.047 32.0015V46.0669C135.047 46.3163 135.132 46.5345 135.304 46.7215C135.491 46.8929 135.709 46.9786 135.958 46.9786H138.249V48.8955H135.958Z" fill="#00FFF2"/>
<path d="M143.872 48.8955V30.8955L145.789 32.0016V35.3371H154.859C155.373 35.3371 155.841 35.4695 156.262 35.7345C156.698 35.9838 157.041 36.3267 157.29 36.763C157.555 37.1838 157.688 37.6514 157.688 38.1656V48.8955H155.771V38.1656C155.771 37.9163 155.677 37.7059 155.49 37.5345C155.319 37.3475 155.108 37.2539 154.859 37.2539H146.724C146.475 37.2539 146.256 37.3475 146.069 37.5345C145.882 37.7059 145.789 37.9163 145.789 38.1656V48.8955H143.872Z" fill="#00FFF2"/>
<path d="M166.138 48.8954C165.624 48.8954 165.149 48.7707 164.712 48.5213C164.291 48.2564 163.949 47.9135 163.684 47.4928C163.434 47.0564 163.31 46.5811 163.31 46.0668V38.1655C163.31 37.6512 163.434 37.1837 163.684 36.7629C163.949 36.3265 164.291 35.9837 164.712 35.7343C165.149 35.4694 165.624 35.3369 166.138 35.3369H174.273C174.803 35.3369 175.278 35.4694 175.699 35.7343C176.136 35.9837 176.478 36.3265 176.728 36.7629C176.993 37.1837 177.125 37.6512 177.125 38.1655V46.0668C177.125 46.5811 176.993 47.0564 176.728 47.4928C176.478 47.9135 176.136 48.2564 175.699 48.5213C175.278 48.7707 174.803 48.8954 174.273 48.8954H166.138ZM166.138 46.9785H174.273C174.523 46.9785 174.733 46.8928 174.904 46.7213C175.091 46.5343 175.185 46.3161 175.185 46.0668V38.1655C175.185 37.9161 175.091 37.7057 174.904 37.5343C174.733 37.3473 174.523 37.2538 174.273 37.2538H166.138C165.889 37.2538 165.671 37.3473 165.484 37.5343C165.312 37.7057 165.226 37.9161 165.226 38.1655V46.0668C165.226 46.3161 165.312 46.5343 165.484 46.7213C165.671 46.8928 165.889 46.9785 166.138 46.9785Z" fill="#00FFF2"/>
<path d="M185.576 48.8954C185.061 48.8954 184.586 48.7707 184.15 48.5213C183.729 48.2564 183.386 47.9135 183.121 47.4928C182.872 47.0564 182.747 46.5811 182.747 46.0668V35.3369L184.664 36.4442V46.0668C184.664 46.3161 184.75 46.5343 184.921 46.7213C185.108 46.8928 185.326 46.9785 185.576 46.9785H193.711C193.96 46.9785 194.178 46.8928 194.365 46.7213C194.552 46.5343 194.646 46.3161 194.646 46.0668V35.3369L196.563 36.4449V46.0668C196.563 46.5811 196.43 47.0564 196.165 47.4928C195.916 47.9135 195.573 48.2564 195.137 48.5213C194.716 48.7707 194.241 48.8954 193.711 48.8954H185.576Z" fill="#00FFF2"/>
<path d="M205.003 48.8954C204.49 48.8954 204.017 48.7707 203.582 48.5213C203.163 48.2564 202.821 47.9135 202.557 47.4928C202.309 47.0564 202.185 46.5811 202.185 46.0668V38.1655C202.185 37.6512 202.309 37.1837 202.557 36.7629C202.821 36.3265 203.163 35.9837 203.582 35.7343C204.017 35.4694 204.49 35.3369 205.003 35.3369H213.108C213.636 35.3369 214.11 35.4694 214.529 35.7343C214.964 35.9837 215.305 36.3265 215.554 36.7629C215.818 37.1837 215.95 37.6512 215.95 38.1655V43.0746H204.094V46.0668C204.094 46.3161 204.18 46.5343 204.351 46.7213C204.537 46.8928 204.754 46.9785 205.003 46.9785H215.95V48.8954H205.003ZM204.094 41.1577H214.016V38.1655C214.016 37.9161 213.923 37.7057 213.737 37.5343C213.566 37.3473 213.357 37.2538 213.108 37.2538H205.003C204.754 37.2538 204.537 37.3473 204.351 37.5343C204.18 37.7057 204.094 37.9161 204.094 38.1655V41.1577Z" fill="#00FFF2"/>
<path d="M236.401 48.8955C235.871 48.8955 235.388 48.7708 234.951 48.5215C234.531 48.2565 234.196 47.9137 233.946 47.4929C233.697 47.0565 233.572 46.5812 233.572 46.0669V30.8955L235.489 32.0027V35.3371H241.357V37.2539H235.489V46.0669C235.489 46.3163 235.575 46.5345 235.746 46.7215C235.933 46.8929 236.151 46.9786 236.401 46.9786H241.357V48.8955H236.401Z" fill="#00FFF2"/>
<path d="M224.4 48.895C223.87 48.895 223.387 48.7703 222.951 48.521C222.53 48.2561 222.195 47.9132 221.945 47.4924C221.696 47.0561 221.571 46.5807 221.571 46.0664V30.895L223.488 32.0022V35.3366H229.356V37.2535H223.488V46.0664C223.488 46.3158 223.574 46.534 223.745 46.721C223.932 46.8924 224.151 46.9781 224.4 46.9781H229.356V48.895H224.4Z" fill="#00FFF2"/>
<path d="M249.798 48.8954C249.285 48.8954 248.812 48.7707 248.377 48.5213C247.958 48.2564 247.616 47.9135 247.352 47.4928C247.104 47.0564 246.979 46.5811 246.979 46.0668V38.1655C246.979 37.6512 247.104 37.1837 247.352 36.7629C247.616 36.3265 247.958 35.9837 248.377 35.7343C248.812 35.4694 249.285 35.3369 249.798 35.3369H257.903C258.431 35.3369 258.905 35.4694 259.324 35.7343C259.759 35.9837 260.1 36.3265 260.349 36.7629C260.613 37.1837 260.745 37.6512 260.745 38.1655V43.0746H248.889V46.0668C248.889 46.3161 248.975 46.5343 249.146 46.7213C249.332 46.8928 249.549 46.9785 249.798 46.9785H260.745V48.8954H249.798ZM248.889 41.1577H258.811V38.1655C258.811 37.9161 258.718 37.7057 258.532 37.5343C258.361 37.3473 258.151 37.2538 257.903 37.2538H249.798C249.549 37.2538 249.332 37.3473 249.146 37.5343C248.975 37.7057 248.889 37.9161 248.889 38.1655V41.1577Z" fill="#00FFF2"/>
</g>
<g style="mix-blend-mode:screen">
<path d="M107.662 48.8956C107.174 48.8956 106.723 48.7773 106.309 48.5407C105.909 48.3041 105.591 47.9862 105.355 47.587C105.118 47.173 105 46.722 105 46.234L105 42.7734L106.797 43.8196V46.234C106.797 46.4706 106.878 46.6776 107.041 46.8551C107.218 47.0177 107.425 47.099 107.662 47.099H118.308C118.544 47.099 118.744 47.0177 118.907 46.8551C119.084 46.6776 119.173 46.4706 119.173 46.234V42.6631C119.173 42.4265 119.084 42.2269 118.907 42.0643C118.744 41.9016 118.544 41.8203 118.308 41.8203H107.662C107.174 41.8203 106.723 41.702 106.309 41.4654C105.909 41.214 105.591 40.8887 105.355 40.4895C105.118 40.0903 105 39.6467 105 39.1587V35.5878C105 35.0999 105.118 34.6563 105.355 34.257C105.591 33.843 105.909 33.5177 106.309 33.2811C106.723 33.0446 107.174 32.9263 107.662 32.9263H118.308C118.796 32.9263 119.239 33.0446 119.639 33.2811C120.053 33.5177 120.378 33.843 120.614 34.257C120.851 34.6563 120.969 35.0999 120.969 35.5878V39.049L119.175 38.0135L119.173 35.5878C119.173 35.3512 119.084 35.1516 118.907 34.989C118.744 34.8115 118.544 34.7228 118.308 34.7228H107.662C107.425 34.7228 107.218 34.8115 107.041 34.989C106.878 35.1516 106.797 35.3512 106.797 35.5878V39.1587C106.797 39.3953 106.878 39.5949 107.041 39.7576C107.218 39.9202 107.425 40.0016 107.662 40.0016H118.308C118.796 40.0016 119.239 40.1272 119.639 40.3786C120.053 40.6152 120.378 40.9331 120.614 41.3323C120.851 41.7316 120.969 42.1752 120.969 42.6631V46.234C120.969 46.722 120.851 47.173 120.614 47.587C120.378 47.9862 120.053 48.3041 119.639 48.5407C119.239 48.7773 118.796 48.8956 118.308 48.8956H107.662Z" fill="#FA00FF"/>
<path d="M126.592 48.8955V35.3371L128.509 36.4587V48.8955H126.592ZM126.592 32.8124V30.8955H128.509V32.8124H126.592Z" fill="#FA00FF"/>
<path d="M136.958 48.8955C136.444 48.8955 135.969 48.7708 135.532 48.5215C135.112 48.2565 134.769 47.9137 134.504 47.4929C134.255 47.0565 134.13 46.5812 134.13 46.0669V30.8955L136.047 32.0015V46.0669C136.047 46.3163 136.132 46.5345 136.304 46.7215C136.491 46.8929 136.709 46.9786 136.958 46.9786H139.249V48.8955H136.958Z" fill="#FA00FF"/>
<path d="M144.872 48.8955V30.8955L146.789 32.0016V35.3371H155.859C156.373 35.3371 156.841 35.4695 157.262 35.7345C157.698 35.9838 158.041 36.3267 158.29 36.763C158.555 37.1838 158.688 37.6514 158.688 38.1656V48.8955H156.771V38.1656C156.771 37.9163 156.677 37.7059 156.49 37.5345C156.319 37.3475 156.108 37.2539 155.859 37.2539H147.724C147.475 37.2539 147.256 37.3475 147.069 37.5345C146.882 37.7059 146.789 37.9163 146.789 38.1656V48.8955H144.872Z" fill="#FA00FF"/>
<path d="M167.138 48.8954C166.624 48.8954 166.149 48.7707 165.712 48.5213C165.291 48.2564 164.949 47.9135 164.684 47.4928C164.434 47.0564 164.31 46.5811 164.31 46.0668V38.1655C164.31 37.6512 164.434 37.1837 164.684 36.7629C164.949 36.3265 165.291 35.9837 165.712 35.7343C166.149 35.4694 166.624 35.3369 167.138 35.3369H175.273C175.803 35.3369 176.278 35.4694 176.699 35.7343C177.136 35.9837 177.478 36.3265 177.728 36.7629C177.993 37.1837 178.125 37.6512 178.125 38.1655V46.0668C178.125 46.5811 177.993 47.0564 177.728 47.4928C177.478 47.9135 177.136 48.2564 176.699 48.5213C176.278 48.7707 175.803 48.8954 175.273 48.8954H167.138ZM167.138 46.9785H175.273C175.523 46.9785 175.733 46.8928 175.904 46.7213C176.091 46.5343 176.185 46.3161 176.185 46.0668V38.1655C176.185 37.9161 176.091 37.7057 175.904 37.5343C175.733 37.3473 175.523 37.2538 175.273 37.2538H167.138C166.889 37.2538 166.671 37.3473 166.484 37.5343C166.312 37.7057 166.226 37.9161 166.226 38.1655V46.0668C166.226 46.3161 166.312 46.5343 166.484 46.7213C166.671 46.8928 166.889 46.9785 167.138 46.9785Z" fill="#FA00FF"/>
<path d="M186.576 48.8954C186.061 48.8954 185.586 48.7707 185.15 48.5213C184.729 48.2564 184.386 47.9135 184.121 47.4928C183.872 47.0564 183.747 46.5811 183.747 46.0668V35.3369L185.664 36.4442V46.0668C185.664 46.3161 185.75 46.5343 185.921 46.7213C186.108 46.8928 186.326 46.9785 186.576 46.9785H194.711C194.96 46.9785 195.178 46.8928 195.365 46.7213C195.552 46.5343 195.646 46.3161 195.646 46.0668V35.3369L197.563 36.4449V46.0668C197.563 46.5811 197.43 47.0564 197.165 47.4928C196.916 47.9135 196.573 48.2564 196.137 48.5213C195.716 48.7707 195.241 48.8954 194.711 48.8954H186.576Z" fill="#FA00FF"/>
<path d="M206.003 48.8954C205.49 48.8954 205.017 48.7707 204.582 48.5213C204.163 48.2564 203.821 47.9135 203.557 47.4928C203.309 47.0564 203.185 46.5811 203.185 46.0668V38.1655C203.185 37.6512 203.309 37.1837 203.557 36.7629C203.821 36.3265 204.163 35.9837 204.582 35.7343C205.017 35.4694 205.49 35.3369 206.003 35.3369H214.108C214.636 35.3369 215.11 35.4694 215.529 35.7343C215.964 35.9837 216.305 36.3265 216.554 36.7629C216.818 37.1837 216.95 37.6512 216.95 38.1655V43.0746H205.094V46.0668C205.094 46.3161 205.18 46.5343 205.351 46.7213C205.537 46.8928 205.754 46.9785 206.003 46.9785H216.95V48.8954H206.003ZM205.094 41.1577H215.016V38.1655C215.016 37.9161 214.923 37.7057 214.737 37.5343C214.566 37.3473 214.357 37.2538 214.108 37.2538H206.003C205.754 37.2538 205.537 37.3473 205.351 37.5343C205.18 37.7057 205.094 37.9161 205.094 38.1655V41.1577Z" fill="#FA00FF"/>
<path d="M237.401 48.8955C236.871 48.8955 236.388 48.7708 235.951 48.5215C235.531 48.2565 235.196 47.9137 234.946 47.4929C234.697 47.0565 234.572 46.5812 234.572 46.0669V30.8955L236.489 32.0027V35.3371H242.357V37.2539H236.489V46.0669C236.489 46.3163 236.575 46.5345 236.746 46.7215C236.933 46.8929 237.151 46.9786 237.401 46.9786H242.357V48.8955H237.401Z" fill="#FA00FF"/>
<path d="M225.4 48.895C224.87 48.895 224.387 48.7703 223.951 48.521C223.53 48.2561 223.195 47.9132 222.945 47.4924C222.696 47.0561 222.571 46.5807 222.571 46.0664V30.895L224.488 32.0022V35.3366H230.356V37.2535H224.488V46.0664C224.488 46.3158 224.574 46.534 224.745 46.721C224.932 46.8924 225.151 46.9781 225.4 46.9781H230.356V48.895H225.4Z" fill="#FA00FF"/>
<path d="M250.798 48.8954C250.285 48.8954 249.812 48.7707 249.377 48.5213C248.958 48.2564 248.616 47.9135 248.352 47.4928C248.104 47.0564 247.979 46.5811 247.979 46.0668V38.1655C247.979 37.6512 248.104 37.1837 248.352 36.7629C248.616 36.3265 248.958 35.9837 249.377 35.7343C249.812 35.4694 250.285 35.3369 250.798 35.3369H258.903C259.431 35.3369 259.905 35.4694 260.324 35.7343C260.759 35.9837 261.1 36.3265 261.349 36.7629C261.613 37.1837 261.745 37.6512 261.745 38.1655V43.0746H249.889V46.0668C249.889 46.3161 249.975 46.5343 250.146 46.7213C250.332 46.8928 250.549 46.9785 250.798 46.9785H261.745V48.8954H250.798ZM249.889 41.1577H259.811V38.1655C259.811 37.9161 259.718 37.7057 259.532 37.5343C259.361 37.3473 259.151 37.2538 258.903 37.2538H250.798C250.549 37.2538 250.332 37.3473 250.146 37.5343C249.975 37.7057 249.889 37.9161 249.889 38.1655V41.1577Z" fill="#FA00FF"/>
</g>
<g filter="url(#filter1_b_2282_8979)">
<rect x="1260" y="23.8955" width="32" height="32" rx="7.11111" fill="white" fill-opacity="0.08"/>
<g style="mix-blend-mode:screen">
<path d="M1269.68 39.4808C1269.68 39.4808 1276.05 36.8671 1278.26 35.9467C1279.11 35.5786 1281.98 34.4005 1281.98 34.4005C1281.98 34.4005 1283.3 33.8852 1283.19 35.1368C1283.16 35.6522 1282.86 37.456 1282.57 39.4072C1282.13 42.1682 1281.65 45.1869 1281.65 45.1869C1281.65 45.1869 1281.57 46.0337 1280.95 46.1809C1280.32 46.3282 1279.29 45.6656 1279.11 45.5183C1278.96 45.4078 1276.35 43.7512 1275.39 42.9413C1275.13 42.7204 1274.84 42.2787 1275.43 41.7633C1276.75 40.5484 1278.33 39.0391 1279.29 38.0819C1279.73 37.6401 1280.18 36.6094 1278.33 37.861C1275.72 39.6649 1273.14 41.3583 1273.14 41.3583C1273.14 41.3583 1272.56 41.7264 1271.45 41.3951C1270.35 41.0638 1269.06 40.622 1269.06 40.622C1269.06 40.622 1268.17 40.0698 1269.68 39.4808Z" fill="#A0A9B8"/>
</g>
</g>
<g filter="url(#filter2_b_2282_8979)">
<rect x="1304" y="23.8955" width="32" height="32" rx="7.11111" fill="white" fill-opacity="0.08"/>
<path d="M1321.26 38.9248L1326.47 32.9961H1325.24L1320.71 38.1429L1317.1 32.9961H1312.93L1318.4 40.7797L1312.93 46.9961H1314.17L1318.94 41.5598L1322.76 46.9961H1326.92M1314.61 33.9072H1316.51L1325.23 46.1297H1323.34" fill="#A0A9B8"/>
</g>
</g>
<defs>
<filter id="filter0_b_2282_8979" x="-64" y="-64.1045" width="1568" height="208" filterUnits="userSpaceOnUse" color-interpolation-filters="sRGB">
<feFlood flood-opacity="0" result="BackgroundImageFix"/>
<feGaussianBlur in="BackgroundImageFix" stdDeviation="32"/>
<feComposite in2="SourceAlpha" operator="in" result="effect1_backgroundBlur_2282_8979"/>
<feBlend mode="normal" in="SourceGraphic" in2="effect1_backgroundBlur_2282_8979" result="shape"/>
</filter>
<filter id="filter1_b_2282_8979" x="1256" y="19.8955" width="40" height="40" filterUnits="userSpaceOnUse" color-interpolation-filters="sRGB">
<feFlood flood-opacity="0" result="BackgroundImageFix"/>
<feGaussianBlur in="BackgroundImageFix" stdDeviation="2"/>
<feComposite in2="SourceAlpha" operator="in" result="effect1_backgroundBlur_2282_8979"/>
<feBlend mode="normal" in="SourceGraphic" in2="effect1_backgroundBlur_2282_8979" result="shape"/>
</filter>
<filter id="filter2_b_2282_8979" x="1300" y="19.8955" width="40" height="40" filterUnits="userSpaceOnUse" color-interpolation-filters="sRGB">
<feFlood flood-opacity="0" result="BackgroundImageFix"/>
<feGaussianBlur in="BackgroundImageFix" stdDeviation="2"/>
<feComposite in2="SourceAlpha" operator="in" result="effect1_backgroundBlur_2282_8979"/>
<feBlend mode="normal" in="SourceGraphic" in2="effect1_backgroundBlur_2282_8979" result="shape"/>
</filter>
</defs>
</svg>
