<svg width="516" height="201" viewBox="0 0 516 201" fill="none" xmlns="http://www.w3.org/2000/svg">
<g opacity="0.07">
<g style="mix-blend-mode:screen" opacity="0.25">
<path d="M34.932 200.903C28.8209 200.903 23.1727 199.421 17.9875 196.458C12.9875 193.495 9.00604 189.514 6.04308 184.514C3.08011 179.329 1.59863 173.681 1.59863 167.57L1.59918 124.228L24.0986 137.331V167.57C24.0986 170.532 25.1172 173.125 27.1542 175.347C29.3764 177.384 31.969 178.403 34.932 178.403H168.265C171.228 178.403 173.728 177.384 175.765 175.347C177.988 173.125 179.099 170.532 179.099 167.57V122.847C179.099 119.884 177.988 117.384 175.765 115.347C173.728 113.31 171.228 112.292 168.265 112.292H34.932C28.8209 112.292 23.1727 110.81 17.9875 107.847C12.9875 104.699 9.00604 100.625 6.04308 95.6251C3.08011 90.6251 1.59863 85.0695 1.59863 78.9584V34.2362C1.59863 28.1251 3.08011 22.5695 6.04308 17.5695C9.00604 12.3843 12.9875 8.31024 17.9875 5.34727C23.1727 2.38431 28.8209 0.902832 34.932 0.902832H168.265C174.376 0.902832 179.932 2.38431 184.932 5.34727C190.117 8.31024 194.191 12.3843 197.154 17.5695C200.117 22.5695 201.599 28.1251 201.599 34.2362V77.5842L179.13 64.6148L179.099 34.2362C179.099 31.2732 177.988 28.7732 175.765 26.7362C173.728 24.5139 171.228 23.4028 168.265 23.4028H34.932C31.969 23.4028 29.3764 24.5139 27.1542 26.7362C25.1172 28.7732 24.0986 31.2732 24.0986 34.2362V78.9584C24.0986 81.9214 25.1172 84.4214 27.1542 86.4584C29.3764 88.4954 31.969 89.5139 34.932 89.5139H168.265C174.376 89.5139 179.932 91.088 184.932 94.2362C190.117 97.1991 194.191 101.181 197.154 106.181C200.117 111.181 201.599 116.736 201.599 122.847V167.57C201.599 173.681 200.117 179.329 197.154 184.514C194.191 189.514 190.117 193.495 184.932 196.458C179.932 199.421 174.376 200.903 168.265 200.903H34.932Z" fill="#FA00FF"/>
</g>
<g style="mix-blend-mode:screen" opacity="0.25">
<path d="M51.3949 200.903C45.2838 200.903 39.6356 199.421 34.4504 196.458C29.4504 193.495 25.4689 189.514 22.506 184.514C19.543 179.329 18.0615 173.681 18.0615 167.57L18.0621 124.228L40.5615 137.331V167.57C40.5615 170.532 41.58 173.125 43.6171 175.347C45.8393 177.384 48.4319 178.403 51.3949 178.403H184.728C187.691 178.403 190.191 177.384 192.228 175.347C194.45 173.125 195.562 170.532 195.562 167.57V122.847C195.562 119.884 194.45 117.384 192.228 115.347C190.191 113.31 187.691 112.292 184.728 112.292H51.3949C45.2838 112.292 39.6356 110.81 34.4504 107.847C29.4504 104.699 25.4689 100.625 22.506 95.6251C19.543 90.6251 18.0615 85.0695 18.0615 78.9584V34.2362C18.0615 28.1251 19.543 22.5695 22.506 17.5695C25.4689 12.3843 29.4504 8.31024 34.4504 5.34727C39.6356 2.38431 45.2838 0.902832 51.3949 0.902832H184.728C190.839 0.902832 196.395 2.38431 201.395 5.34727C206.58 8.31024 210.654 12.3843 213.617 17.5695C216.58 22.5695 218.061 28.1251 218.061 34.2362V77.5842L195.593 64.6148L195.562 34.2362C195.562 31.2732 194.45 28.7732 192.228 26.7362C190.191 24.5139 187.691 23.4028 184.728 23.4028H51.3949C48.4319 23.4028 45.8393 24.5139 43.6171 26.7362C41.58 28.7732 40.5615 31.2732 40.5615 34.2362V78.9584C40.5615 81.9214 41.58 84.4214 43.6171 86.4584C45.8393 88.4954 48.4319 89.5139 51.3949 89.5139H184.728C190.839 89.5139 196.395 91.088 201.395 94.2362C206.58 97.1991 210.654 101.181 213.617 106.181C216.58 111.181 218.061 116.736 218.061 122.847V167.57C218.061 173.681 216.58 179.329 213.617 184.514C210.654 189.514 206.58 193.495 201.395 196.458C196.395 199.421 190.839 200.903 184.728 200.903H51.3949Z" fill="#FA00FF"/>
</g>
<g style="mix-blend-mode:screen" opacity="0.25">
<path d="M67.8587 200.903C61.7476 200.903 56.0995 199.421 50.9143 196.458C45.9143 193.495 41.9328 189.514 38.9698 184.514C36.0069 179.329 34.5254 173.681 34.5254 167.57L34.5259 124.228L57.0254 137.331V167.57C57.0254 170.532 58.0439 173.125 60.081 175.347C62.3032 177.384 64.8958 178.403 67.8587 178.403H201.192C204.155 178.403 206.655 177.384 208.692 175.347C210.914 173.125 212.025 170.532 212.025 167.57V122.847C212.025 119.884 210.914 117.384 208.692 115.347C206.655 113.31 204.155 112.292 201.192 112.292H67.8587C61.7476 112.292 56.0995 110.81 50.9143 107.847C45.9143 104.699 41.9328 100.625 38.9698 95.6251C36.0069 90.6251 34.5254 85.0695 34.5254 78.9584V34.2362C34.5254 28.1251 36.0069 22.5695 38.9698 17.5695C41.9328 12.3843 45.9143 8.31024 50.9143 5.34727C56.0995 2.38431 61.7476 0.902832 67.8587 0.902832H201.192C207.303 0.902832 212.859 2.38431 217.859 5.34727C223.044 8.31024 227.118 12.3843 230.081 17.5695C233.044 22.5695 234.525 28.1251 234.525 34.2362V77.5842L212.057 64.6148L212.025 34.2362C212.025 31.2732 210.914 28.7732 208.692 26.7362C206.655 24.5139 204.155 23.4028 201.192 23.4028H67.8587C64.8958 23.4028 62.3032 24.5139 60.081 26.7362C58.0439 28.7732 57.0254 31.2732 57.0254 34.2362V78.9584C57.0254 81.9214 58.0439 84.4214 60.081 86.4584C62.3032 88.4954 64.8958 89.5139 67.8587 89.5139H201.192C207.303 89.5139 212.859 91.088 217.859 94.2362C223.044 97.1991 227.118 101.181 230.081 106.181C233.044 111.181 234.525 116.736 234.525 122.847V167.57C234.525 173.681 233.044 179.329 230.081 184.514C227.118 189.514 223.044 193.495 217.859 196.458C212.859 199.421 207.303 200.903 201.192 200.903H67.8587Z" fill="#FA00FF"/>
</g>
<g style="mix-blend-mode:screen" opacity="0.25">
<path d="M84.3216 200.903C78.2105 200.903 72.5624 199.421 67.3772 196.458C62.3772 193.495 58.3957 189.514 55.4327 184.514C52.4698 179.329 50.9883 173.681 50.9883 167.57L50.9888 124.228L73.4883 137.331V167.57C73.4883 170.532 74.5068 173.125 76.5438 175.347C78.7661 177.384 81.3587 178.403 84.3216 178.403H217.655C220.618 178.403 223.118 177.384 225.155 175.347C227.377 173.125 228.488 170.532 228.488 167.57V122.847C228.488 119.884 227.377 117.384 225.155 115.347C223.118 113.31 220.618 112.292 217.655 112.292H84.3216C78.2105 112.292 72.5624 110.81 67.3772 107.847C62.3772 104.699 58.3957 100.625 55.4327 95.6251C52.4698 90.6251 50.9883 85.0695 50.9883 78.9584V34.2362C50.9883 28.1251 52.4698 22.5695 55.4327 17.5695C58.3957 12.3843 62.3772 8.31024 67.3772 5.34727C72.5624 2.38431 78.2105 0.902832 84.3216 0.902832H217.655C223.766 0.902832 229.322 2.38431 234.322 5.34727C239.507 8.31024 243.581 12.3843 246.544 17.5695C249.507 22.5695 250.988 28.1251 250.988 34.2362V77.5842L228.52 64.6148L228.488 34.2362C228.488 31.2732 227.377 28.7732 225.155 26.7362C223.118 24.5139 220.618 23.4028 217.655 23.4028H84.3216C81.3587 23.4028 78.7661 24.5139 76.5438 26.7362C74.5068 28.7732 73.4883 31.2732 73.4883 34.2362V78.9584C73.4883 81.9214 74.5068 84.4214 76.5438 86.4584C78.7661 88.4954 81.3587 89.5139 84.3216 89.5139H217.655C223.766 89.5139 229.322 91.088 234.322 94.2362C239.507 97.1991 243.581 101.181 246.544 106.181C249.507 111.181 250.988 116.736 250.988 122.847V167.57C250.988 173.681 249.507 179.329 246.544 184.514C243.581 189.514 239.507 193.495 234.322 196.458C229.322 199.421 223.766 200.903 217.655 200.903H84.3216Z" fill="#FA00FF"/>
</g>
<g style="mix-blend-mode:screen" opacity="0.25">
<path d="M100.785 200.903C94.6744 200.903 89.0262 199.421 83.841 196.458C78.841 193.495 74.8596 189.514 71.8966 184.514C68.9336 179.329 67.4521 173.681 67.4521 167.57L67.4527 124.228L89.9522 137.331V167.57C89.9522 170.532 90.9707 173.125 93.0077 175.347C95.2299 177.384 97.8225 178.403 100.785 178.403H234.119C237.082 178.403 239.582 177.384 241.619 175.347C243.841 173.125 244.952 170.532 244.952 167.57V122.847C244.952 119.884 243.841 117.384 241.619 115.347C239.582 113.31 237.082 112.292 234.119 112.292H100.785C94.6744 112.292 89.0262 110.81 83.841 107.847C78.841 104.699 74.8596 100.625 71.8966 95.6251C68.9336 90.6251 67.4521 85.0695 67.4521 78.9584V34.2362C67.4521 28.1251 68.9336 22.5695 71.8966 17.5695C74.8596 12.3843 78.841 8.31024 83.841 5.34727C89.0262 2.38431 94.6744 0.902832 100.785 0.902832H234.119C240.23 0.902832 245.786 2.38431 250.786 5.34727C255.971 8.31024 260.045 12.3843 263.008 17.5695C265.971 22.5695 267.452 28.1251 267.452 34.2362V77.5842L244.984 64.6148L244.952 34.2362C244.952 31.2732 243.841 28.7732 241.619 26.7362C239.582 24.5139 237.082 23.4028 234.119 23.4028H100.785C97.8225 23.4028 95.2299 24.5139 93.0077 26.7362C90.9707 28.7732 89.9522 31.2732 89.9522 34.2362V78.9584C89.9522 81.9214 90.9707 84.4214 93.0077 86.4584C95.2299 88.4954 97.8225 89.5139 100.785 89.5139H234.119C240.23 89.5139 245.786 91.088 250.786 94.2362C255.971 97.1991 260.045 101.181 263.008 106.181C265.971 111.181 267.452 116.736 267.452 122.847V167.57C267.452 173.681 265.971 179.329 263.008 184.514C260.045 189.514 255.971 193.495 250.786 196.458C245.786 199.421 240.23 200.903 234.119 200.903H100.785Z" fill="#FA00FF"/>
</g>
<g style="mix-blend-mode:screen" opacity="0.25">
<path d="M117.248 200.903C111.137 200.903 105.489 199.421 100.304 196.458C95.3039 193.495 91.3224 189.514 88.3595 184.514C85.3965 179.329 83.915 173.681 83.915 167.57L83.9156 124.228L106.415 137.331V167.57C106.415 170.532 107.434 173.125 109.471 175.347C111.693 177.384 114.285 178.403 117.248 178.403H250.582C253.545 178.403 256.045 177.384 258.082 175.347C260.304 173.125 261.415 170.532 261.415 167.57V122.847C261.415 119.884 260.304 117.384 258.082 115.347C256.045 113.31 253.545 112.292 250.582 112.292H117.248C111.137 112.292 105.489 110.81 100.304 107.847C95.3039 104.699 91.3224 100.625 88.3595 95.6251C85.3965 90.6251 83.915 85.0695 83.915 78.9584V34.2362C83.915 28.1251 85.3965 22.5695 88.3595 17.5695C91.3224 12.3843 95.3039 8.31024 100.304 5.34727C105.489 2.38431 111.137 0.902832 117.248 0.902832H250.582C256.693 0.902832 262.248 2.38431 267.248 5.34727C272.434 8.31024 276.508 12.3843 279.471 17.5695C282.434 22.5695 283.915 28.1251 283.915 34.2362V77.5842L261.447 64.6148L261.415 34.2362C261.415 31.2732 260.304 28.7732 258.082 26.7362C256.045 24.5139 253.545 23.4028 250.582 23.4028H117.248C114.285 23.4028 111.693 24.5139 109.471 26.7362C107.434 28.7732 106.415 31.2732 106.415 34.2362V78.9584C106.415 81.9214 107.434 84.4214 109.471 86.4584C111.693 88.4954 114.285 89.5139 117.248 89.5139H250.582C256.693 89.5139 262.248 91.088 267.248 94.2362C272.434 97.1991 276.508 101.181 279.471 106.181C282.434 111.181 283.915 116.736 283.915 122.847V167.57C283.915 173.681 282.434 179.329 279.471 184.514C276.508 189.514 272.434 193.495 267.248 196.458C262.248 199.421 256.693 200.903 250.582 200.903H117.248Z" fill="#FA00FF"/>
</g>
<g style="mix-blend-mode:screen" opacity="0.25">
<path d="M133.711 200.903C127.6 200.903 121.952 199.421 116.767 196.458C111.767 193.495 107.785 189.514 104.822 184.514C101.859 179.329 100.378 173.681 100.378 167.57L100.378 124.228L122.878 137.331V167.57C122.878 170.532 123.896 173.125 125.933 175.347C128.156 177.384 130.748 178.403 133.711 178.403H267.045C270.008 178.403 272.508 177.384 274.545 175.347C276.767 173.125 277.878 170.532 277.878 167.57V122.847C277.878 119.884 276.767 117.384 274.545 115.347C272.508 113.31 270.008 112.292 267.045 112.292H133.711C127.6 112.292 121.952 110.81 116.767 107.847C111.767 104.699 107.785 100.625 104.822 95.6251C101.859 90.6251 100.378 85.0695 100.378 78.9584V34.2362C100.378 28.1251 101.859 22.5695 104.822 17.5695C107.785 12.3843 111.767 8.31024 116.767 5.34727C121.952 2.38431 127.6 0.902832 133.711 0.902832H267.045C273.156 0.902832 278.711 2.38431 283.711 5.34727C288.896 8.31024 292.971 12.3843 295.934 17.5695C298.897 22.5695 300.378 28.1251 300.378 34.2362V77.5842L277.909 64.6148L277.878 34.2362C277.878 31.2732 276.767 28.7732 274.545 26.7362C272.508 24.5139 270.008 23.4028 267.045 23.4028H133.711C130.748 23.4028 128.156 24.5139 125.933 26.7362C123.896 28.7732 122.878 31.2732 122.878 34.2362V78.9584C122.878 81.9214 123.896 84.4214 125.933 86.4584C128.156 88.4954 130.748 89.5139 133.711 89.5139H267.045C273.156 89.5139 278.711 91.088 283.711 94.2362C288.896 97.1991 292.971 101.181 295.934 106.181C298.897 111.181 300.378 116.736 300.378 122.847V167.57C300.378 173.681 298.897 179.329 295.934 184.514C292.971 189.514 288.896 193.495 283.711 196.458C278.711 199.421 273.156 200.903 267.045 200.903H133.711Z" fill="#FA00FF"/>
</g>
<g style="mix-blend-mode:screen" opacity="0.25">
<path d="M150.175 200.903C144.064 200.903 138.416 199.421 133.231 196.458C128.231 193.495 124.249 189.514 121.286 184.514C118.323 179.329 116.842 173.681 116.842 167.57L116.842 124.228L139.342 137.331V167.57C139.342 170.532 140.36 173.125 142.397 175.347C144.62 177.384 147.212 178.403 150.175 178.403H283.508C286.471 178.403 288.971 177.384 291.009 175.347C293.231 173.125 294.342 170.532 294.342 167.57V122.847C294.342 119.884 293.231 117.384 291.009 115.347C288.971 113.31 286.471 112.292 283.508 112.292H150.175C144.064 112.292 138.416 110.81 133.231 107.847C128.231 104.699 124.249 100.625 121.286 95.6251C118.323 90.6251 116.842 85.0695 116.842 78.9584V34.2362C116.842 28.1251 118.323 22.5695 121.286 17.5695C124.249 12.3843 128.231 8.31024 133.231 5.34727C138.416 2.38431 144.064 0.902832 150.175 0.902832H283.508C289.62 0.902832 295.175 2.38431 300.175 5.34727C305.36 8.31024 309.434 12.3843 312.397 17.5695C315.36 22.5695 316.842 28.1251 316.842 34.2362V77.5842L294.373 64.6148L294.342 34.2362C294.342 31.2732 293.231 28.7732 291.009 26.7362C288.971 24.5139 286.471 23.4028 283.508 23.4028H150.175C147.212 23.4028 144.62 24.5139 142.397 26.7362C140.36 28.7732 139.342 31.2732 139.342 34.2362V78.9584C139.342 81.9214 140.36 84.4214 142.397 86.4584C144.62 88.4954 147.212 89.5139 150.175 89.5139H283.508C289.62 89.5139 295.175 91.088 300.175 94.2362C305.36 97.1991 309.434 101.181 312.397 106.181C315.36 111.181 316.842 116.736 316.842 122.847V167.57C316.842 173.681 315.36 179.329 312.397 184.514C309.434 189.514 305.36 193.495 300.175 196.458C295.175 199.421 289.62 200.903 283.508 200.903H150.175Z" fill="#FA00FF"/>
</g>
<g style="mix-blend-mode:screen" opacity="0.25">
<path d="M166.638 200.903C160.527 200.903 154.879 199.421 149.694 196.458C144.694 193.495 140.712 189.514 137.749 184.514C134.786 179.329 133.305 173.681 133.305 167.57L133.305 124.228L155.805 137.331V167.57C155.805 170.532 156.823 173.125 158.86 175.347C161.082 177.384 163.675 178.403 166.638 178.403H299.971C302.934 178.403 305.434 177.384 307.471 175.347C309.694 173.125 310.805 170.532 310.805 167.57V122.847C310.805 119.884 309.694 117.384 307.471 115.347C305.434 113.31 302.934 112.292 299.971 112.292H166.638C160.527 112.292 154.879 110.81 149.694 107.847C144.694 104.699 140.712 100.625 137.749 95.6251C134.786 90.6251 133.305 85.0695 133.305 78.9584V34.2362C133.305 28.1251 134.786 22.5695 137.749 17.5695C140.712 12.3843 144.694 8.31024 149.694 5.34727C154.879 2.38431 160.527 0.902832 166.638 0.902832H299.971C306.082 0.902832 311.638 2.38431 316.638 5.34727C321.823 8.31024 325.897 12.3843 328.86 17.5695C331.823 22.5695 333.305 28.1251 333.305 34.2362V77.5842L310.836 64.6148L310.805 34.2362C310.805 31.2732 309.694 28.7732 307.471 26.7362C305.434 24.5139 302.934 23.4028 299.971 23.4028H166.638C163.675 23.4028 161.082 24.5139 158.86 26.7362C156.823 28.7732 155.805 31.2732 155.805 34.2362V78.9584C155.805 81.9214 156.823 84.4214 158.86 86.4584C161.082 88.4954 163.675 89.5139 166.638 89.5139H299.971C306.082 89.5139 311.638 91.088 316.638 94.2362C321.823 97.1991 325.897 101.181 328.86 106.181C331.823 111.181 333.305 116.736 333.305 122.847V167.57C333.305 173.681 331.823 179.329 328.86 184.514C325.897 189.514 321.823 193.495 316.638 196.458C311.638 199.421 306.082 200.903 299.971 200.903H166.638Z" fill="#FA00FF"/>
</g>
<g style="mix-blend-mode:screen">
<path d="M183.102 200.903C176.991 200.903 171.343 199.421 166.157 196.458C161.157 193.495 157.176 189.514 154.213 184.514C151.25 179.329 149.769 173.681 149.769 167.57L149.769 124.228L172.269 137.331V167.57C172.269 170.532 173.287 173.125 175.324 175.347C177.546 177.384 180.139 178.403 183.102 178.403H316.435C319.398 178.403 321.898 177.384 323.935 175.347C326.158 173.125 327.269 170.532 327.269 167.57V122.847C327.269 119.884 326.158 117.384 323.935 115.347C321.898 113.31 319.398 112.292 316.435 112.292H183.102C176.991 112.292 171.343 110.81 166.157 107.847C161.157 104.699 157.176 100.625 154.213 95.6251C151.25 90.6251 149.769 85.0695 149.769 78.9584V34.2362C149.769 28.1251 151.25 22.5695 154.213 17.5695C157.176 12.3843 161.157 8.31024 166.157 5.34727C171.343 2.38431 176.991 0.902832 183.102 0.902832H316.435C322.546 0.902832 328.102 2.38431 333.102 5.34727C338.287 8.31024 342.361 12.3843 345.324 17.5695C348.287 22.5695 349.769 28.1251 349.769 34.2362V77.5842L327.3 64.6148L327.269 34.2362C327.269 31.2732 326.158 28.7732 323.935 26.7362C321.898 24.5139 319.398 23.4028 316.435 23.4028H183.102C180.139 23.4028 177.546 24.5139 175.324 26.7362C173.287 28.7732 172.269 31.2732 172.269 34.2362V78.9584C172.269 81.9214 173.287 84.4214 175.324 86.4584C177.546 88.4954 180.139 89.5139 183.102 89.5139H316.435C322.546 89.5139 328.102 91.088 333.102 94.2362C338.287 97.1991 342.361 101.181 345.324 106.181C348.287 111.181 349.769 116.736 349.769 122.847V167.57C349.769 173.681 348.287 179.329 345.324 184.514C342.361 189.514 338.287 193.495 333.102 196.458C328.102 199.421 322.546 200.903 316.435 200.903H183.102Z" fill="#FA00FF"/>
</g>
<g style="mix-blend-mode:screen">
<path d="M199.565 200.903C193.454 200.903 187.806 199.421 182.62 196.458C177.62 193.495 173.639 189.514 170.676 184.514C167.713 179.329 166.231 173.681 166.231 167.57L166.232 124.228L188.731 137.331V167.57C188.731 170.532 189.75 173.125 191.787 175.347C194.009 177.384 196.602 178.403 199.565 178.403H332.898C335.861 178.403 338.361 177.384 340.398 175.347C342.62 173.125 343.732 170.532 343.732 167.57V122.847C343.732 119.884 342.62 117.384 340.398 115.347C338.361 113.31 335.861 112.292 332.898 112.292H199.565C193.454 112.292 187.806 110.81 182.62 107.847C177.62 104.699 173.639 100.625 170.676 95.6251C167.713 90.6251 166.231 85.0695 166.231 78.9584V34.2362C166.231 28.1251 167.713 22.5695 170.676 17.5695C173.639 12.3843 177.62 8.31024 182.62 5.34727C187.806 2.38431 193.454 0.902832 199.565 0.902832H332.898C339.009 0.902832 344.565 2.38431 349.565 5.34727C354.75 8.31024 358.824 12.3843 361.787 17.5695C364.75 22.5695 366.231 28.1251 366.231 34.2362V77.5842L343.763 64.6148L343.732 34.2362C343.732 31.2732 342.62 28.7732 340.398 26.7362C338.361 24.5139 335.861 23.4028 332.898 23.4028H199.565C196.602 23.4028 194.009 24.5139 191.787 26.7362C189.75 28.7732 188.731 31.2732 188.731 34.2362V78.9584C188.731 81.9214 189.75 84.4214 191.787 86.4584C194.009 88.4954 196.602 89.5139 199.565 89.5139H332.898C339.009 89.5139 344.565 91.088 349.565 94.2362C354.75 97.1991 358.824 101.181 361.787 106.181C364.75 111.181 366.231 116.736 366.231 122.847V167.57C366.231 173.681 364.75 179.329 361.787 184.514C358.824 189.514 354.75 193.495 349.565 196.458C344.565 199.421 339.009 200.903 332.898 200.903H199.565Z" fill="#00FFF2"/>
</g>
<g style="mix-blend-mode:screen" opacity="0.2">
<path d="M216.029 200.903C209.918 200.903 204.269 199.421 199.084 196.458C194.084 193.495 190.103 189.514 187.14 184.514C184.177 179.329 182.695 173.681 182.695 167.57L182.696 124.228L205.195 137.331V167.57C205.195 170.532 206.214 173.125 208.251 175.347C210.473 177.384 213.066 178.403 216.029 178.403H349.362C352.325 178.403 354.825 177.384 356.862 175.347C359.084 173.125 360.195 170.532 360.195 167.57V122.847C360.195 119.884 359.084 117.384 356.862 115.347C354.825 113.31 352.325 112.292 349.362 112.292H216.029C209.918 112.292 204.269 110.81 199.084 107.847C194.084 104.699 190.103 100.625 187.14 95.6251C184.177 90.6251 182.695 85.0695 182.695 78.9584V34.2362C182.695 28.1251 184.177 22.5695 187.14 17.5695C190.103 12.3843 194.084 8.31024 199.084 5.34727C204.269 2.38431 209.918 0.902832 216.029 0.902832H349.362C355.473 0.902832 361.029 2.38431 366.029 5.34727C371.214 8.31024 375.288 12.3843 378.251 17.5695C381.214 22.5695 382.695 28.1251 382.695 34.2362V77.5842L360.227 64.6148L360.195 34.2362C360.195 31.2732 359.084 28.7732 356.862 26.7362C354.825 24.5139 352.325 23.4028 349.362 23.4028H216.029C213.066 23.4028 210.473 24.5139 208.251 26.7362C206.214 28.7732 205.195 31.2732 205.195 34.2362V78.9584C205.195 81.9214 206.214 84.4214 208.251 86.4584C210.473 88.4954 213.066 89.5139 216.029 89.5139H349.362C355.473 89.5139 361.029 91.088 366.029 94.2362C371.214 97.1991 375.288 101.181 378.251 106.181C381.214 111.181 382.695 116.736 382.695 122.847V167.57C382.695 173.681 381.214 179.329 378.251 184.514C375.288 189.514 371.214 193.495 366.029 196.458C361.029 199.421 355.473 200.903 349.362 200.903H216.029Z" fill="#00FFF2"/>
</g>
<g style="mix-blend-mode:screen" opacity="0.2">
<path d="M232.492 200.903C226.38 200.903 220.732 199.421 215.547 196.458C210.547 193.495 206.566 189.514 203.603 184.514C200.64 179.329 199.158 173.681 199.158 167.57L199.159 124.228L221.658 137.331V167.57C221.658 170.532 222.677 173.125 224.714 175.347C226.936 177.384 229.529 178.403 232.492 178.403H365.825C368.788 178.403 371.288 177.384 373.325 175.347C375.547 173.125 376.658 170.532 376.658 167.57V122.847C376.658 119.884 375.547 117.384 373.325 115.347C371.288 113.31 368.788 112.292 365.825 112.292H232.492C226.38 112.292 220.732 110.81 215.547 107.847C210.547 104.699 206.566 100.625 203.603 95.6251C200.64 90.6251 199.158 85.0695 199.158 78.9584V34.2362C199.158 28.1251 200.64 22.5695 203.603 17.5695C206.566 12.3843 210.547 8.31024 215.547 5.34727C220.732 2.38431 226.38 0.902832 232.492 0.902832H365.825C371.936 0.902832 377.492 2.38431 382.492 5.34727C387.677 8.31024 391.751 12.3843 394.714 17.5695C397.677 22.5695 399.158 28.1251 399.158 34.2362V77.5842L376.69 64.6148L376.658 34.2362C376.658 31.2732 375.547 28.7732 373.325 26.7362C371.288 24.5139 368.788 23.4028 365.825 23.4028H232.492C229.529 23.4028 226.936 24.5139 224.714 26.7362C222.677 28.7732 221.658 31.2732 221.658 34.2362V78.9584C221.658 81.9214 222.677 84.4214 224.714 86.4584C226.936 88.4954 229.529 89.5139 232.492 89.5139H365.825C371.936 89.5139 377.492 91.088 382.492 94.2362C387.677 97.1991 391.751 101.181 394.714 106.181C397.677 111.181 399.158 116.736 399.158 122.847V167.57C399.158 173.681 397.677 179.329 394.714 184.514C391.751 189.514 387.677 193.495 382.492 196.458C377.492 199.421 371.936 200.903 365.825 200.903H232.492Z" fill="#00FFF2"/>
</g>
<g style="mix-blend-mode:screen" opacity="0.2">
<path d="M248.955 200.903C242.844 200.903 237.196 199.421 232.011 196.458C227.011 193.495 223.029 189.514 220.067 184.514C217.104 179.329 215.622 173.681 215.622 167.57L215.623 124.228L238.122 137.331V167.57C238.122 170.532 239.141 173.125 241.178 175.347C243.4 177.384 245.992 178.403 248.955 178.403H382.289C385.252 178.403 387.752 177.384 389.789 175.347C392.011 173.125 393.122 170.532 393.122 167.57V122.847C393.122 119.884 392.011 117.384 389.789 115.347C387.752 113.31 385.252 112.292 382.289 112.292H248.955C242.844 112.292 237.196 110.81 232.011 107.847C227.011 104.699 223.029 100.625 220.067 95.6251C217.104 90.6251 215.622 85.0695 215.622 78.9584V34.2362C215.622 28.1251 217.104 22.5695 220.067 17.5695C223.029 12.3843 227.011 8.31024 232.011 5.34727C237.196 2.38431 242.844 0.902832 248.955 0.902832H382.289C388.4 0.902832 393.955 2.38431 398.955 5.34727C404.141 8.31024 408.215 12.3843 411.178 17.5695C414.141 22.5695 415.622 28.1251 415.622 34.2362V77.5842L393.154 64.6148L393.122 34.2362C393.122 31.2732 392.011 28.7732 389.789 26.7362C387.752 24.5139 385.252 23.4028 382.289 23.4028H248.955C245.992 23.4028 243.4 24.5139 241.178 26.7362C239.141 28.7732 238.122 31.2732 238.122 34.2362V78.9584C238.122 81.9214 239.141 84.4214 241.178 86.4584C243.4 88.4954 245.992 89.5139 248.955 89.5139H382.289C388.4 89.5139 393.955 91.088 398.955 94.2362C404.141 97.1991 408.215 101.181 411.178 106.181C414.141 111.181 415.622 116.736 415.622 122.847V167.57C415.622 173.681 414.141 179.329 411.178 184.514C408.215 189.514 404.141 193.495 398.955 196.458C393.955 199.421 388.4 200.903 382.289 200.903H248.955Z" fill="#00FFF2"/>
</g>
<g style="mix-blend-mode:screen" opacity="0.2">
<path d="M265.418 200.903C259.307 200.903 253.659 199.421 248.474 196.458C243.474 193.495 239.492 189.514 236.529 184.514C233.566 179.329 232.085 173.681 232.085 167.57L232.086 124.228L254.585 137.331V167.57C254.585 170.532 255.603 173.125 257.641 175.347C259.863 177.384 262.455 178.403 265.418 178.403H398.752C401.715 178.403 404.215 177.384 406.252 175.347C408.474 173.125 409.585 170.532 409.585 167.57V122.847C409.585 119.884 408.474 117.384 406.252 115.347C404.215 113.31 401.715 112.292 398.752 112.292H265.418C259.307 112.292 253.659 110.81 248.474 107.847C243.474 104.699 239.492 100.625 236.529 95.6251C233.566 90.6251 232.085 85.0695 232.085 78.9584V34.2362C232.085 28.1251 233.566 22.5695 236.529 17.5695C239.492 12.3843 243.474 8.31024 248.474 5.34727C253.659 2.38431 259.307 0.902832 265.418 0.902832H398.752C404.863 0.902832 410.418 2.38431 415.418 5.34727C420.604 8.31024 424.678 12.3843 427.641 17.5695C430.604 22.5695 432.085 28.1251 432.085 34.2362V77.5842L409.616 64.6148L409.585 34.2362C409.585 31.2732 408.474 28.7732 406.252 26.7362C404.215 24.5139 401.715 23.4028 398.752 23.4028H265.418C262.455 23.4028 259.863 24.5139 257.641 26.7362C255.603 28.7732 254.585 31.2732 254.585 34.2362V78.9584C254.585 81.9214 255.603 84.4214 257.641 86.4584C259.863 88.4954 262.455 89.5139 265.418 89.5139H398.752C404.863 89.5139 410.418 91.088 415.418 94.2362C420.604 97.1991 424.678 101.181 427.641 106.181C430.604 111.181 432.085 116.736 432.085 122.847V167.57C432.085 173.681 430.604 179.329 427.641 184.514C424.678 189.514 420.604 193.495 415.418 196.458C410.418 199.421 404.863 200.903 398.752 200.903H265.418Z" fill="#00FFF2"/>
</g>
<g style="mix-blend-mode:screen" opacity="0.2">
<path d="M281.882 200.903C275.771 200.903 270.123 199.421 264.938 196.458C259.938 193.495 255.956 189.514 252.993 184.514C250.03 179.329 248.549 173.681 248.549 167.57L248.549 124.228L271.049 137.331V167.57C271.049 170.532 272.067 173.125 274.104 175.347C276.327 177.384 278.919 178.403 281.882 178.403H415.216C418.178 178.403 420.679 177.384 422.716 175.347C424.938 173.125 426.049 170.532 426.049 167.57V122.847C426.049 119.884 424.938 117.384 422.716 115.347C420.679 113.31 418.178 112.292 415.216 112.292H281.882C275.771 112.292 270.123 110.81 264.938 107.847C259.938 104.699 255.956 100.625 252.993 95.6251C250.03 90.6251 248.549 85.0695 248.549 78.9584V34.2362C248.549 28.1251 250.03 22.5695 252.993 17.5695C255.956 12.3843 259.938 8.31024 264.938 5.34727C270.123 2.38431 275.771 0.902832 281.882 0.902832H415.216C421.327 0.902832 426.882 2.38431 431.882 5.34727C437.067 8.31024 441.141 12.3843 444.104 17.5695C447.067 22.5695 448.549 28.1251 448.549 34.2362V77.5842L426.08 64.6148L426.049 34.2362C426.049 31.2732 424.938 28.7732 422.716 26.7362C420.679 24.5139 418.178 23.4028 415.216 23.4028H281.882C278.919 23.4028 276.327 24.5139 274.104 26.7362C272.067 28.7732 271.049 31.2732 271.049 34.2362V78.9584C271.049 81.9214 272.067 84.4214 274.104 86.4584C276.327 88.4954 278.919 89.5139 281.882 89.5139H415.216C421.327 89.5139 426.882 91.088 431.882 94.2362C437.067 97.1991 441.141 101.181 444.104 106.181C447.067 111.181 448.549 116.736 448.549 122.847V167.57C448.549 173.681 447.067 179.329 444.104 184.514C441.141 189.514 437.067 193.495 431.882 196.458C426.882 199.421 421.327 200.903 415.216 200.903H281.882Z" fill="#00FFF2"/>
</g>
<g style="mix-blend-mode:screen" opacity="0.2">
<path d="M298.345 200.903C292.234 200.903 286.586 199.421 281.401 196.458C276.401 193.495 272.419 189.514 269.456 184.514C266.493 179.329 265.012 173.681 265.012 167.57L265.012 124.228L287.512 137.331V167.57C287.512 170.532 288.53 173.125 290.567 175.347C292.79 177.384 295.382 178.403 298.345 178.403H431.678C434.641 178.403 437.141 177.384 439.178 175.347C441.401 173.125 442.512 170.532 442.512 167.57V122.847C442.512 119.884 441.401 117.384 439.178 115.347C437.141 113.31 434.641 112.292 431.678 112.292H298.345C292.234 112.292 286.586 110.81 281.401 107.847C276.401 104.699 272.419 100.625 269.456 95.6251C266.493 90.6251 265.012 85.0695 265.012 78.9584V34.2362C265.012 28.1251 266.493 22.5695 269.456 17.5695C272.419 12.3843 276.401 8.31024 281.401 5.34727C286.586 2.38431 292.234 0.902832 298.345 0.902832H431.678C437.79 0.902832 443.345 2.38431 448.345 5.34727C453.53 8.31024 457.604 12.3843 460.567 17.5695C463.53 22.5695 465.012 28.1251 465.012 34.2362V77.5842L442.543 64.6148L442.512 34.2362C442.512 31.2732 441.401 28.7732 439.178 26.7362C437.141 24.5139 434.641 23.4028 431.678 23.4028H298.345C295.382 23.4028 292.79 24.5139 290.567 26.7362C288.53 28.7732 287.512 31.2732 287.512 34.2362V78.9584C287.512 81.9214 288.53 84.4214 290.567 86.4584C292.79 88.4954 295.382 89.5139 298.345 89.5139H431.678C437.79 89.5139 443.345 91.088 448.345 94.2362C453.53 97.1991 457.604 101.181 460.567 106.181C463.53 111.181 465.012 116.736 465.012 122.847V167.57C465.012 173.681 463.53 179.329 460.567 184.514C457.604 189.514 453.53 193.495 448.345 196.458C443.345 199.421 437.79 200.903 431.678 200.903H298.345Z" fill="#00FFF2"/>
</g>
<g style="mix-blend-mode:screen" opacity="0.2">
<path d="M314.808 200.903C308.697 200.903 303.049 199.421 297.864 196.458C292.863 193.495 288.882 189.514 285.919 184.514C282.956 179.329 281.475 173.681 281.475 167.57L281.475 124.228L303.975 137.331V167.57C303.975 170.532 304.993 173.125 307.03 175.347C309.252 177.384 311.845 178.403 314.808 178.403H448.141C451.104 178.403 453.604 177.384 455.641 175.347C457.864 173.125 458.975 170.532 458.975 167.57V122.847C458.975 119.884 457.864 117.384 455.641 115.347C453.604 113.31 451.104 112.292 448.141 112.292H314.808C308.697 112.292 303.049 110.81 297.864 107.847C292.863 104.699 288.882 100.625 285.919 95.6251C282.956 90.6251 281.475 85.0695 281.475 78.9584V34.2362C281.475 28.1251 282.956 22.5695 285.919 17.5695C288.882 12.3843 292.863 8.31024 297.864 5.34727C303.049 2.38431 308.697 0.902832 314.808 0.902832H448.141C454.252 0.902832 459.808 2.38431 464.808 5.34727C469.993 8.31024 474.067 12.3843 477.03 17.5695C479.993 22.5695 481.475 28.1251 481.475 34.2362V77.5842L459.006 64.6148L458.975 34.2362C458.975 31.2732 457.864 28.7732 455.641 26.7362C453.604 24.5139 451.104 23.4028 448.141 23.4028H314.808C311.845 23.4028 309.252 24.5139 307.03 26.7362C304.993 28.7732 303.975 31.2732 303.975 34.2362V78.9584C303.975 81.9214 304.993 84.4214 307.03 86.4584C309.252 88.4954 311.845 89.5139 314.808 89.5139H448.141C454.252 89.5139 459.808 91.088 464.808 94.2362C469.993 97.1991 474.067 101.181 477.03 106.181C479.993 111.181 481.475 116.736 481.475 122.847V167.57C481.475 173.681 479.993 179.329 477.03 184.514C474.067 189.514 469.993 193.495 464.808 196.458C459.808 199.421 454.252 200.903 448.141 200.903H314.808Z" fill="#00FFF2"/>
</g>
<g style="mix-blend-mode:screen" opacity="0.2">
<path d="M331.272 200.903C325.161 200.903 319.513 199.421 314.327 196.458C309.327 193.495 305.346 189.514 302.383 184.514C299.42 179.329 297.938 173.681 297.938 167.57L297.939 124.228L320.438 137.331V167.57C320.438 170.532 321.457 173.125 323.494 175.347C325.716 177.384 328.309 178.403 331.272 178.403H464.605C467.568 178.403 470.068 177.384 472.105 175.347C474.327 173.125 475.439 170.532 475.439 167.57V122.847C475.439 119.884 474.327 117.384 472.105 115.347C470.068 113.31 467.568 112.292 464.605 112.292H331.272C325.161 112.292 319.513 110.81 314.327 107.847C309.327 104.699 305.346 100.625 302.383 95.6251C299.42 90.6251 297.938 85.0695 297.938 78.9584V34.2362C297.938 28.1251 299.42 22.5695 302.383 17.5695C305.346 12.3843 309.327 8.31024 314.327 5.34727C319.513 2.38431 325.161 0.902832 331.272 0.902832H464.605C470.716 0.902832 476.272 2.38431 481.272 5.34727C486.457 8.31024 490.531 12.3843 493.494 17.5695C496.457 22.5695 497.938 28.1251 497.938 34.2362V77.5842L475.47 64.6148L475.439 34.2362C475.439 31.2732 474.327 28.7732 472.105 26.7362C470.068 24.5139 467.568 23.4028 464.605 23.4028H331.272C328.309 23.4028 325.716 24.5139 323.494 26.7362C321.457 28.7732 320.438 31.2732 320.438 34.2362V78.9584C320.438 81.9214 321.457 84.4214 323.494 86.4584C325.716 88.4954 328.309 89.5139 331.272 89.5139H464.605C470.716 89.5139 476.272 91.088 481.272 94.2362C486.457 97.1991 490.531 101.181 493.494 106.181C496.457 111.181 497.938 116.736 497.938 122.847V167.57C497.938 173.681 496.457 179.329 493.494 184.514C490.531 189.514 486.457 193.495 481.272 196.458C476.272 199.421 470.716 200.903 464.605 200.903H331.272Z" fill="#00FFF2"/>
</g>
<g style="mix-blend-mode:screen" opacity="0.2">
<path d="M347.735 200.903C341.624 200.903 335.975 199.421 330.79 196.458C325.79 193.495 321.809 189.514 318.846 184.514C315.883 179.329 314.401 173.681 314.401 167.57L314.402 124.228L336.901 137.331V167.57C336.901 170.532 337.92 173.125 339.957 175.347C342.179 177.384 344.772 178.403 347.735 178.403H481.068C484.031 178.403 486.531 177.384 488.568 175.347C490.79 173.125 491.901 170.532 491.901 167.57V122.847C491.901 119.884 490.79 117.384 488.568 115.347C486.531 113.31 484.031 112.292 481.068 112.292H347.735C341.624 112.292 335.975 110.81 330.79 107.847C325.79 104.699 321.809 100.625 318.846 95.6251C315.883 90.6251 314.401 85.0695 314.401 78.9584V34.2362C314.401 28.1251 315.883 22.5695 318.846 17.5695C321.809 12.3843 325.79 8.31024 330.79 5.34727C335.975 2.38431 341.624 0.902832 347.735 0.902832H481.068C487.179 0.902832 492.735 2.38431 497.735 5.34727C502.92 8.31024 506.994 12.3843 509.957 17.5695C512.92 22.5695 514.401 28.1251 514.401 34.2362V77.5842L491.933 64.6148L491.901 34.2362C491.901 31.2732 490.79 28.7732 488.568 26.7362C486.531 24.5139 484.031 23.4028 481.068 23.4028H347.735C344.772 23.4028 342.179 24.5139 339.957 26.7362C337.92 28.7732 336.901 31.2732 336.901 34.2362V78.9584C336.901 81.9214 337.92 84.4214 339.957 86.4584C342.179 88.4954 344.772 89.5139 347.735 89.5139H481.068C487.179 89.5139 492.735 91.088 497.735 94.2362C502.92 97.1991 506.994 101.181 509.957 106.181C512.92 111.181 514.401 116.736 514.401 122.847V167.57C514.401 173.681 512.92 179.329 509.957 184.514C506.994 189.514 502.92 193.495 497.735 196.458C492.735 199.421 487.179 200.903 481.068 200.903H347.735Z" fill="#00FFF2"/>
</g>
</g>
</svg>
